M48
;GenerationSoftware,Autodesk,EAGLE,9.6.2*%
;CreationDate,2023-10-24T16:39:59Z*%
FMAT,2
ICI,OFF
METRIC,TZ,000.000
T8C0.350
T7C0.610
T6C0.813
T5C1.000
T4C1.016
T3C1.118
T2C1.300
T1C2.540
%
G90
M71
T1
X3000Y42000
X52000Y3000
X52000Y42000
X3000Y3000
T2
X30000Y40000
X25000Y40000
T3
X35500Y32920
X35500Y43080
T4
X3000Y12230
X13530Y3000
X16070Y3000
X44010Y3000
X18610Y3000
X21150Y3000
X23690Y3000
X28770Y3000
X3000Y17310
X3000Y14770
X3000Y9690
X31310Y3000
X33850Y3000
X36390Y3000
X38930Y3000
X41470Y3000
X26230Y3000
X10990Y3000
T5
X44635Y32730
X42095Y34000
X44635Y35270
T6
X19190Y18190
X21730Y18190
X21730Y25810
X19190Y25810
X24270Y18190
X33190Y18190
X35730Y18190
X35730Y25810
X33190Y25810
X26810Y18190
X38270Y18190
X40810Y18190
X38270Y25810
X40810Y25810
X24270Y25810
X26810Y25810
T7
X13000Y25540
X13000Y23000
X13000Y20460
T8
X37000Y41500
X40000Y40500
X46500Y44000
X49500Y44000
X47000Y41000
X51000Y37000
X47500Y38000
X49000Y40000
X52500Y34500
X50000Y31000
X50000Y34500
X52000Y30000
X53000Y38000
X36500Y36500
X34500Y34500
X30500Y28500
X24000Y29000
X17000Y27500
X14000Y28500
X15000Y27500
X16500Y20500
X19000Y20000
X16000Y17500
X12500Y18500
X11000Y16000
X18000Y12500
X16500Y11000
X20500Y13500
X27500Y14500
X29000Y18500
X28500Y16000
X31500Y18000
X30000Y24500
X31500Y25500
X31000Y23500
X33000Y23500
X38500Y21500
X37000Y22000
X25500Y20500
X24000Y20000
X46000Y9500
X45000Y9000
X40500Y9500
X39000Y9000
X37500Y7500
X36000Y6000
X33500Y9500
X32500Y7500
X29500Y8500
X30000Y6000
X28000Y7000
X21000Y9000
X22500Y9500
X19000Y7000
X24000Y6000
X24500Y7000
X25000Y5000
X46000Y5000
X47500Y3500
X51500Y7000
X53000Y11500
X51000Y11500
X53500Y7500
X49000Y6500
X48500Y1500
X42500Y1000
X30000Y1000
X22500Y1000
X14500Y1000
X19500Y1000
X27000Y1000
X35000Y1000
X40000Y1000
X8500Y1500
X9000Y7000
X4500Y6500
X1000Y5500
X1000Y11000
X15500Y40500
X1000Y19000
X1000Y24000
X2000Y33500
X5000Y34500
X14000Y33000
X17500Y39500
X23000Y32000
X26500Y32000
X19500Y32000
X9000Y20500
X8000Y21500
X5000Y24500
X17000Y26000
X27000Y28500
X28000Y23000
X43500Y21500
X45000Y21500
X43500Y25000
X43500Y27500
X46000Y25000
X45000Y27000
X45000Y29000
X46500Y32000
X39500Y32000
X40500Y32000
X38000Y39000
X39000Y41000
X54000Y39500
X53000Y27500
X50500Y28500
X49500Y24500
X50000Y21500
X52500Y21000
X53500Y25000
X53500Y17500
X48000Y14000
X46500Y13000
X53500Y14500
X51000Y9000
X54000Y5000
X49000Y4500
X38000Y9500
X29500Y12500
X26000Y9000
X25500Y18000
X18000Y17500
X14000Y24000
X14500Y19500
X25500Y25500
X16000Y37500
X16500Y43500
X5500Y44000
X11500Y42500
X11500Y44000
X9000Y43000
X14500Y42000
X53000Y32000
X36500Y32000
X29000Y32000
X33000Y38500
X41000Y41500
X45500Y43000
X2000Y31000
X17500Y1000
X24500Y1000
X32500Y1000
X37000Y1000
X46500Y1500
X49500Y1000
X4500Y1000
X1000Y40000
X1000Y35500
X48000Y31000
X50500Y14500
X42000Y13500
X48500Y10000
X10000Y23500
X5500Y32500
X10000Y37500
X12000Y36000
X6500Y36000
X9000Y33500
X11500Y32500
X12500Y41000
X6500Y41000
X7500Y39000
X2000Y38000
X4500Y29000
X1500Y27500
X1000Y20500
X2000Y8000
X1000Y14000
X6000Y1500
X1000Y16000
X6500Y8500
X7000Y4500
X14500Y9500
X13500Y7500
X10500Y13500
X8000Y11500
X9000Y18500
X4500Y21500
X5000Y19500
X9000Y25000
X10000Y28000
X10500Y29000
X17000Y32500
X15500Y35000
X12000Y39000
X20000Y43500
X28000Y42500
X24500Y43500
X23500Y37500
X22000Y40000
X22500Y36000
X27500Y35500
X28000Y38000
X27500Y40000
X30500Y42500
X34000Y43500
X32500Y40500
X34000Y42000
X31500Y37000
X39500Y39500
X12000Y1500
M30