G04 EAGLE Gerber RS-274X export*
G75*
%MOMM*%
%FSLAX34Y34*%
%LPD*%
%INSolderpaste Top*%
%IPPOS*%
%AMOC8*
5,1,8,0,0,1.08239X$1,22.5*%
G01*
%ADD10R,1.600000X1.800000*%
%ADD11R,1.800000X1.600000*%
%ADD12R,1.100000X1.000000*%
%ADD13R,2.794000X2.286000*%
%ADD14R,1.600000X1.803000*%
%ADD15R,1.000000X1.100000*%
%ADD16R,1.803000X1.600000*%


D10*
X449000Y385000D03*
X421000Y385000D03*
D11*
X395000Y369000D03*
X395000Y341000D03*
D12*
X443500Y406000D03*
X426500Y406000D03*
X195000Y353500D03*
X195000Y336500D03*
X480000Y326500D03*
X480000Y343500D03*
D13*
X195000Y415460D03*
X195000Y374540D03*
D10*
X196000Y155000D03*
X224000Y155000D03*
D14*
X164220Y155000D03*
X135780Y155000D03*
X225780Y130000D03*
X254220Y130000D03*
D10*
X286000Y305000D03*
X314000Y305000D03*
D15*
X161500Y305000D03*
X178500Y305000D03*
D12*
X138500Y305000D03*
X121500Y305000D03*
D11*
X75000Y294000D03*
X75000Y266000D03*
D12*
X370000Y121500D03*
X370000Y138500D03*
D15*
X358500Y160000D03*
X341500Y160000D03*
X391500Y135000D03*
X408500Y135000D03*
X448500Y135000D03*
X431500Y135000D03*
D11*
X440000Y161000D03*
X440000Y189000D03*
D16*
X465000Y160780D03*
X465000Y189220D03*
D11*
X490000Y189000D03*
X490000Y161000D03*
D14*
X375780Y285000D03*
X404220Y285000D03*
D15*
X78500Y235000D03*
X61500Y235000D03*
D10*
X344000Y135000D03*
X316000Y135000D03*
D15*
X301500Y160000D03*
X318500Y160000D03*
D12*
X191500Y280000D03*
X208500Y280000D03*
X251500Y160000D03*
X268500Y160000D03*
X331500Y280000D03*
X348500Y280000D03*
X391500Y160000D03*
X408500Y160000D03*
M02*
