G04 EAGLE Gerber RS-274X export*
G75*
%MOMM*%
%FSLAX34Y34*%
%LPD*%
%INSoldermask Top*%
%IPPOS*%
%AMOC8*
5,1,8,0,0,1.08239X$1,22.5*%
G01*
%ADD10R,1.600000X1.800000*%
%ADD11R,1.800000X1.600000*%
%ADD12R,1.100000X1.000000*%
%ADD13C,1.676400*%
%ADD14R,2.794000X2.286000*%
%ADD15P,1.623585X8X112.500000*%
%ADD16R,1.950000X1.950000*%
%ADD17C,1.950000*%
%ADD18C,0.959600*%
%ADD19R,1.600000X1.803000*%
%ADD20R,1.000000X1.100000*%
%ADD21R,1.803000X1.600000*%
%ADD22C,3.810000*%
%ADD23C,1.524000*%
%ADD24C,1.270000*%


D10*
X449000Y385000D03*
X421000Y385000D03*
D11*
X395000Y369000D03*
X395000Y341000D03*
D12*
X443500Y406000D03*
X426500Y406000D03*
D13*
X355000Y329200D03*
X355000Y430800D03*
D12*
X195000Y353500D03*
X195000Y336500D03*
X480000Y326500D03*
X480000Y343500D03*
D14*
X195000Y415460D03*
X195000Y374540D03*
D15*
X446350Y327300D03*
X420950Y340000D03*
X446350Y352700D03*
D16*
X250000Y400000D03*
D17*
X300000Y400000D03*
D18*
X130000Y255400D03*
X130000Y230000D03*
X130000Y204600D03*
D10*
X196000Y155000D03*
X224000Y155000D03*
D19*
X164220Y155000D03*
X135780Y155000D03*
X225780Y130000D03*
X254220Y130000D03*
D10*
X286000Y305000D03*
X314000Y305000D03*
D20*
X161500Y305000D03*
X178500Y305000D03*
D12*
X138500Y305000D03*
X121500Y305000D03*
D11*
X75000Y294000D03*
X75000Y266000D03*
D12*
X370000Y121500D03*
X370000Y138500D03*
D20*
X358500Y160000D03*
X341500Y160000D03*
X391500Y135000D03*
X408500Y135000D03*
X448500Y135000D03*
X431500Y135000D03*
D11*
X440000Y161000D03*
X440000Y189000D03*
D21*
X465000Y160780D03*
X465000Y189220D03*
D11*
X490000Y189000D03*
X490000Y161000D03*
D19*
X375780Y285000D03*
X404220Y285000D03*
D20*
X78500Y235000D03*
X61500Y235000D03*
D10*
X344000Y135000D03*
X316000Y135000D03*
D20*
X301500Y160000D03*
X318500Y160000D03*
D12*
X191500Y280000D03*
X208500Y280000D03*
X251500Y160000D03*
X268500Y160000D03*
D22*
X30000Y420000D03*
X520000Y420000D03*
X30000Y30000D03*
X520000Y30000D03*
D23*
X37620Y173100D02*
X22380Y173100D01*
X22380Y147700D02*
X37620Y147700D01*
X37620Y122300D02*
X22380Y122300D01*
X22380Y96900D02*
X37620Y96900D01*
D24*
X191900Y181900D03*
X217300Y181900D03*
X217300Y258100D03*
X191900Y258100D03*
X242700Y181900D03*
X268100Y181900D03*
X242700Y258100D03*
X268100Y258100D03*
X331900Y181900D03*
X357300Y181900D03*
X357300Y258100D03*
X331900Y258100D03*
X382700Y181900D03*
X408100Y181900D03*
X382700Y258100D03*
X408100Y258100D03*
D23*
X109900Y37620D02*
X109900Y22380D01*
X135300Y22380D02*
X135300Y37620D01*
X160700Y37620D02*
X160700Y22380D01*
X186100Y22380D02*
X186100Y37620D01*
X211500Y37620D02*
X211500Y22380D01*
X236900Y22380D02*
X236900Y37620D01*
X262300Y37620D02*
X262300Y22380D01*
X287700Y22380D02*
X287700Y37620D01*
X313100Y37620D02*
X313100Y22380D01*
X338500Y22380D02*
X338500Y37620D01*
X363900Y37620D02*
X363900Y22380D01*
X389300Y22380D02*
X389300Y37620D01*
X414700Y37620D02*
X414700Y22380D01*
X440100Y22380D02*
X440100Y37620D01*
D12*
X331500Y280000D03*
X348500Y280000D03*
X391500Y160000D03*
X408500Y160000D03*
M02*
