G04 EAGLE Gerber RS-274X export*
G75*
%MOMM*%
%FSLAX34Y34*%
%LPD*%
%INBottom Copper*%
%IPPOS*%
%AMOC8*
5,1,8,0,0,1.08239X$1,22.5*%
G01*
%ADD10P,1.814519X8X292.500000*%
%ADD11P,1.924489X8X112.500000*%
%ADD12C,3.450000*%
%ADD13C,0.812800*%
%ADD14C,0.600000*%

G36*
X261137Y2520D02*
X261137Y2520D01*
X261258Y2520D01*
X262951Y2687D01*
X263152Y2721D01*
X263353Y2747D01*
X263415Y2766D01*
X263513Y2782D01*
X264055Y2956D01*
X264085Y2970D01*
X264108Y2977D01*
X267235Y4272D01*
X267340Y4325D01*
X267450Y4369D01*
X267595Y4452D01*
X267745Y4527D01*
X267842Y4594D01*
X267944Y4652D01*
X268033Y4725D01*
X268214Y4850D01*
X268463Y5079D01*
X268553Y5153D01*
X270947Y7547D01*
X271024Y7636D01*
X271109Y7718D01*
X271211Y7851D01*
X271321Y7977D01*
X271385Y8076D01*
X271457Y8169D01*
X271511Y8270D01*
X271630Y8455D01*
X271773Y8762D01*
X271828Y8865D01*
X273123Y11992D01*
X273188Y12186D01*
X273260Y12376D01*
X273272Y12439D01*
X273304Y12533D01*
X273407Y13093D01*
X273408Y13126D01*
X273413Y13149D01*
X273580Y14842D01*
X273587Y15119D01*
X273599Y15240D01*
X273599Y238660D01*
X273580Y238937D01*
X273580Y239058D01*
X273413Y240751D01*
X273379Y240952D01*
X273353Y241153D01*
X273334Y241215D01*
X273318Y241313D01*
X273144Y241855D01*
X273130Y241885D01*
X273123Y241908D01*
X271828Y245035D01*
X271775Y245140D01*
X271731Y245250D01*
X271648Y245395D01*
X271573Y245545D01*
X271506Y245642D01*
X271448Y245744D01*
X271375Y245833D01*
X271250Y246014D01*
X271021Y246263D01*
X270947Y246353D01*
X268553Y248747D01*
X268464Y248824D01*
X268382Y248909D01*
X268249Y249011D01*
X268123Y249121D01*
X268024Y249185D01*
X267931Y249257D01*
X267830Y249311D01*
X267645Y249430D01*
X267338Y249573D01*
X267235Y249628D01*
X264108Y250923D01*
X263914Y250988D01*
X263724Y251060D01*
X263661Y251072D01*
X263567Y251104D01*
X263007Y251207D01*
X262974Y251208D01*
X262951Y251213D01*
X261258Y251380D01*
X260981Y251387D01*
X260860Y251399D01*
X15240Y251399D01*
X14963Y251380D01*
X14842Y251380D01*
X13149Y251213D01*
X12948Y251179D01*
X12747Y251153D01*
X12685Y251134D01*
X12587Y251118D01*
X12045Y250944D01*
X12015Y250930D01*
X11992Y250923D01*
X8865Y249628D01*
X8760Y249575D01*
X8650Y249531D01*
X8505Y249448D01*
X8355Y249373D01*
X8258Y249306D01*
X8156Y249248D01*
X8067Y249175D01*
X7886Y249050D01*
X7637Y248821D01*
X7547Y248747D01*
X5153Y246353D01*
X5076Y246264D01*
X4991Y246182D01*
X4889Y246049D01*
X4779Y245923D01*
X4715Y245824D01*
X4643Y245731D01*
X4589Y245630D01*
X4470Y245445D01*
X4327Y245138D01*
X4272Y245035D01*
X2977Y241908D01*
X2912Y241714D01*
X2840Y241524D01*
X2828Y241461D01*
X2796Y241367D01*
X2693Y240807D01*
X2692Y240774D01*
X2687Y240751D01*
X2520Y239058D01*
X2513Y238781D01*
X2501Y238660D01*
X2501Y15240D01*
X2520Y14963D01*
X2520Y14842D01*
X2687Y13149D01*
X2721Y12948D01*
X2747Y12747D01*
X2766Y12685D01*
X2782Y12587D01*
X2956Y12045D01*
X2970Y12015D01*
X2977Y11992D01*
X4272Y8865D01*
X4325Y8760D01*
X4369Y8650D01*
X4452Y8505D01*
X4527Y8355D01*
X4594Y8258D01*
X4652Y8156D01*
X4725Y8067D01*
X4850Y7886D01*
X5079Y7637D01*
X5153Y7547D01*
X7547Y5153D01*
X7636Y5076D01*
X7718Y4991D01*
X7850Y4889D01*
X7977Y4779D01*
X8076Y4715D01*
X8169Y4643D01*
X8270Y4589D01*
X8455Y4470D01*
X8762Y4327D01*
X8865Y4272D01*
X11992Y2977D01*
X12186Y2912D01*
X12376Y2840D01*
X12439Y2828D01*
X12533Y2796D01*
X13093Y2693D01*
X13126Y2692D01*
X13149Y2687D01*
X14842Y2520D01*
X15119Y2513D01*
X15240Y2501D01*
X260860Y2501D01*
X261137Y2520D01*
G37*
%LPC*%
G36*
X163570Y34849D02*
X163570Y34849D01*
X156679Y37704D01*
X151404Y42979D01*
X148549Y49870D01*
X148549Y57330D01*
X149605Y59878D01*
X149606Y59881D01*
X149607Y59883D01*
X149694Y60144D01*
X149785Y60419D01*
X149786Y60421D01*
X149787Y60424D01*
X149837Y60700D01*
X149889Y60979D01*
X149889Y60981D01*
X149889Y60984D01*
X149901Y61273D01*
X149913Y61548D01*
X149912Y61551D01*
X149912Y61554D01*
X149885Y61829D01*
X149857Y62115D01*
X149856Y62118D01*
X149856Y62121D01*
X149789Y62392D01*
X149722Y62669D01*
X149721Y62671D01*
X149720Y62674D01*
X149612Y62943D01*
X149511Y63198D01*
X149509Y63200D01*
X149508Y63203D01*
X149367Y63449D01*
X149228Y63693D01*
X149226Y63695D01*
X149225Y63697D01*
X149216Y63708D01*
X148879Y64143D01*
X148778Y64240D01*
X148724Y64306D01*
X138135Y74895D01*
X135998Y77032D01*
X135151Y79077D01*
X135151Y86124D01*
X135143Y86239D01*
X135145Y86354D01*
X135123Y86523D01*
X135111Y86693D01*
X135087Y86805D01*
X135073Y86920D01*
X135028Y87084D01*
X134992Y87250D01*
X134953Y87358D01*
X134922Y87469D01*
X134855Y87625D01*
X134796Y87785D01*
X134742Y87887D01*
X134696Y87992D01*
X134608Y88137D01*
X134528Y88287D01*
X134460Y88380D01*
X134400Y88479D01*
X134292Y88610D01*
X134191Y88747D01*
X134111Y88830D01*
X134038Y88919D01*
X133912Y89034D01*
X133794Y89155D01*
X133703Y89226D01*
X133618Y89304D01*
X133478Y89400D01*
X133343Y89504D01*
X133243Y89561D01*
X133148Y89626D01*
X132996Y89702D01*
X132848Y89786D01*
X132741Y89829D01*
X132638Y89880D01*
X132477Y89934D01*
X132319Y89997D01*
X132206Y90024D01*
X132097Y90060D01*
X131930Y90091D01*
X131765Y90131D01*
X131650Y90142D01*
X131537Y90163D01*
X131367Y90169D01*
X131198Y90186D01*
X131083Y90181D01*
X130967Y90186D01*
X130798Y90169D01*
X130628Y90161D01*
X130515Y90140D01*
X130400Y90129D01*
X130235Y90088D01*
X130068Y90057D01*
X129959Y90021D01*
X129847Y89993D01*
X129689Y89930D01*
X129528Y89876D01*
X129425Y89824D01*
X129318Y89782D01*
X129171Y89697D01*
X129019Y89621D01*
X128924Y89555D01*
X128824Y89498D01*
X128735Y89425D01*
X128550Y89297D01*
X128306Y89072D01*
X128215Y88997D01*
X124921Y85704D01*
X118030Y82849D01*
X110570Y82849D01*
X103679Y85704D01*
X98404Y90979D01*
X95549Y97870D01*
X95549Y105330D01*
X96084Y106621D01*
X96085Y106623D01*
X96086Y106626D01*
X96142Y106795D01*
X96190Y106915D01*
X96210Y106998D01*
X96265Y107161D01*
X96265Y107164D01*
X96266Y107167D01*
X96313Y107422D01*
X96324Y107468D01*
X96327Y107500D01*
X96368Y107722D01*
X96368Y107724D01*
X96369Y107727D01*
X96380Y108017D01*
X96392Y108291D01*
X96391Y108294D01*
X96392Y108296D01*
X96364Y108572D01*
X96336Y108858D01*
X96335Y108861D01*
X96335Y108863D01*
X96269Y109132D01*
X96201Y109412D01*
X96200Y109414D01*
X96199Y109417D01*
X96090Y109689D01*
X95990Y109941D01*
X95989Y109943D01*
X95988Y109946D01*
X95842Y110199D01*
X95707Y110436D01*
X95705Y110438D01*
X95704Y110440D01*
X95696Y110450D01*
X95358Y110886D01*
X95258Y110983D01*
X95203Y111049D01*
X83928Y122324D01*
X83081Y124369D01*
X83081Y135054D01*
X83073Y135169D01*
X83075Y135284D01*
X83053Y135453D01*
X83041Y135623D01*
X83017Y135735D01*
X83003Y135850D01*
X82958Y136014D01*
X82922Y136180D01*
X82883Y136288D01*
X82852Y136399D01*
X82785Y136555D01*
X82726Y136715D01*
X82672Y136817D01*
X82626Y136922D01*
X82538Y137067D01*
X82458Y137217D01*
X82390Y137310D01*
X82330Y137409D01*
X82222Y137540D01*
X82121Y137677D01*
X82041Y137760D01*
X81968Y137849D01*
X81842Y137964D01*
X81724Y138085D01*
X81633Y138156D01*
X81548Y138234D01*
X81408Y138330D01*
X81273Y138434D01*
X81173Y138491D01*
X81078Y138556D01*
X80926Y138632D01*
X80778Y138716D01*
X80671Y138759D01*
X80568Y138810D01*
X80407Y138864D01*
X80249Y138927D01*
X80136Y138954D01*
X80027Y138990D01*
X79860Y139021D01*
X79695Y139061D01*
X79580Y139072D01*
X79467Y139093D01*
X79297Y139099D01*
X79128Y139116D01*
X79013Y139111D01*
X78897Y139116D01*
X78728Y139099D01*
X78558Y139091D01*
X78445Y139070D01*
X78331Y139059D01*
X78165Y139018D01*
X77998Y138987D01*
X77889Y138951D01*
X77777Y138923D01*
X77619Y138860D01*
X77458Y138806D01*
X77355Y138754D01*
X77248Y138712D01*
X77101Y138627D01*
X76949Y138551D01*
X76854Y138485D01*
X76754Y138428D01*
X76665Y138355D01*
X76480Y138227D01*
X76236Y138002D01*
X76145Y137927D01*
X71921Y133704D01*
X65030Y130849D01*
X57570Y130849D01*
X50679Y133704D01*
X45404Y138979D01*
X42549Y145870D01*
X42549Y153330D01*
X45404Y160221D01*
X50679Y165496D01*
X57570Y168351D01*
X65030Y168351D01*
X71921Y165496D01*
X76145Y161273D01*
X76232Y161197D01*
X76312Y161115D01*
X76447Y161010D01*
X76575Y160899D01*
X76672Y160836D01*
X76763Y160766D01*
X76910Y160682D01*
X77053Y160589D01*
X77158Y160541D01*
X77258Y160484D01*
X77416Y160421D01*
X77570Y160349D01*
X77680Y160316D01*
X77787Y160273D01*
X77953Y160233D01*
X78115Y160184D01*
X78229Y160166D01*
X78341Y160139D01*
X78511Y160123D01*
X78678Y160097D01*
X78793Y160095D01*
X78908Y160084D01*
X79078Y160091D01*
X79248Y160089D01*
X79362Y160104D01*
X79478Y160109D01*
X79645Y160140D01*
X79813Y160161D01*
X79925Y160192D01*
X80038Y160213D01*
X80199Y160267D01*
X80363Y160312D01*
X80469Y160357D01*
X80578Y160394D01*
X80730Y160470D01*
X80886Y160537D01*
X80984Y160597D01*
X81087Y160649D01*
X81227Y160746D01*
X81372Y160834D01*
X81461Y160907D01*
X81556Y160973D01*
X81681Y161088D01*
X81813Y161196D01*
X81890Y161281D01*
X81975Y161359D01*
X82083Y161491D01*
X82198Y161616D01*
X82263Y161711D01*
X82336Y161800D01*
X82424Y161946D01*
X82520Y162086D01*
X82572Y162189D01*
X82631Y162287D01*
X82698Y162443D01*
X82774Y162596D01*
X82810Y162705D01*
X82856Y162811D01*
X82900Y162975D01*
X82954Y163137D01*
X82975Y163250D01*
X83005Y163361D01*
X83016Y163476D01*
X83056Y163697D01*
X83070Y164029D01*
X83081Y164146D01*
X83081Y172542D01*
X83077Y172602D01*
X83079Y172663D01*
X83057Y172886D01*
X83041Y173110D01*
X83029Y173170D01*
X83023Y173229D01*
X82969Y173448D01*
X82922Y173668D01*
X82902Y173724D01*
X82887Y173783D01*
X82804Y173992D01*
X82726Y174203D01*
X82698Y174256D01*
X82676Y174312D01*
X82564Y174507D01*
X82458Y174705D01*
X82422Y174754D01*
X82392Y174806D01*
X82317Y174897D01*
X82121Y175165D01*
X81964Y175326D01*
X81891Y175415D01*
X73815Y183491D01*
X73770Y183531D01*
X73729Y183575D01*
X73555Y183717D01*
X73385Y183865D01*
X73334Y183898D01*
X73288Y183936D01*
X73095Y184053D01*
X72907Y184175D01*
X72852Y184200D01*
X72800Y184231D01*
X72594Y184320D01*
X72390Y184415D01*
X72332Y184432D01*
X72277Y184456D01*
X72060Y184514D01*
X71845Y184580D01*
X71785Y184589D01*
X71727Y184605D01*
X71610Y184616D01*
X71282Y184667D01*
X71057Y184670D01*
X70942Y184681D01*
X51298Y184681D01*
X49252Y185528D01*
X36502Y198278D01*
X36164Y199096D01*
X36164Y199097D01*
X36163Y199097D01*
X35655Y200324D01*
X35655Y208792D01*
X35651Y208852D01*
X35653Y208912D01*
X35631Y209136D01*
X35615Y209360D01*
X35603Y209420D01*
X35597Y209479D01*
X35543Y209698D01*
X35496Y209918D01*
X35476Y209974D01*
X35461Y210033D01*
X35378Y210242D01*
X35300Y210453D01*
X35272Y210506D01*
X35250Y210562D01*
X35138Y210757D01*
X35032Y210955D01*
X34996Y211004D01*
X34966Y211056D01*
X34891Y211147D01*
X34695Y211415D01*
X34538Y211576D01*
X34465Y211665D01*
X29111Y217019D01*
X29066Y217059D01*
X29025Y217103D01*
X28851Y217245D01*
X28681Y217393D01*
X28630Y217426D01*
X28584Y217464D01*
X28392Y217580D01*
X28203Y217703D01*
X28148Y217728D01*
X28096Y217759D01*
X27890Y217848D01*
X27686Y217943D01*
X27628Y217960D01*
X27573Y217984D01*
X27356Y218042D01*
X27141Y218108D01*
X27081Y218117D01*
X27023Y218133D01*
X26906Y218144D01*
X26578Y218195D01*
X26353Y218198D01*
X26238Y218209D01*
X21096Y218209D01*
X15009Y224296D01*
X15009Y232904D01*
X21096Y238991D01*
X29704Y238991D01*
X35227Y233468D01*
X35401Y233317D01*
X35570Y233161D01*
X35616Y233130D01*
X35657Y233094D01*
X35850Y232969D01*
X36040Y232839D01*
X36089Y232814D01*
X36135Y232784D01*
X36344Y232687D01*
X36550Y232585D01*
X36602Y232568D01*
X36652Y232544D01*
X36872Y232478D01*
X37091Y232405D01*
X37145Y232395D01*
X37197Y232379D01*
X37424Y232344D01*
X37651Y232303D01*
X37706Y232300D01*
X37760Y232292D01*
X37990Y232289D01*
X38221Y232280D01*
X38275Y232285D01*
X38330Y232284D01*
X38558Y232313D01*
X38787Y232336D01*
X38841Y232349D01*
X38895Y232356D01*
X39118Y232417D01*
X39341Y232472D01*
X39392Y232492D01*
X39445Y232507D01*
X39656Y232598D01*
X39870Y232683D01*
X39918Y232711D01*
X39968Y232733D01*
X40165Y232852D01*
X40364Y232967D01*
X40398Y232995D01*
X40454Y233029D01*
X40895Y233391D01*
X40939Y233440D01*
X40973Y233468D01*
X46496Y238991D01*
X55104Y238991D01*
X60627Y233468D01*
X60801Y233317D01*
X60970Y233161D01*
X61016Y233130D01*
X61057Y233094D01*
X61250Y232969D01*
X61440Y232839D01*
X61489Y232814D01*
X61535Y232784D01*
X61744Y232687D01*
X61950Y232585D01*
X62002Y232568D01*
X62052Y232544D01*
X62272Y232478D01*
X62491Y232405D01*
X62545Y232395D01*
X62597Y232379D01*
X62824Y232344D01*
X63051Y232303D01*
X63106Y232300D01*
X63160Y232292D01*
X63390Y232289D01*
X63621Y232280D01*
X63675Y232285D01*
X63730Y232284D01*
X63958Y232313D01*
X64187Y232336D01*
X64241Y232349D01*
X64295Y232356D01*
X64518Y232417D01*
X64741Y232472D01*
X64792Y232492D01*
X64845Y232507D01*
X65056Y232598D01*
X65270Y232683D01*
X65318Y232711D01*
X65368Y232733D01*
X65565Y232852D01*
X65764Y232967D01*
X65798Y232995D01*
X65854Y233029D01*
X66295Y233391D01*
X66339Y233440D01*
X66373Y233468D01*
X71896Y238991D01*
X80504Y238991D01*
X86027Y233468D01*
X86201Y233317D01*
X86370Y233161D01*
X86416Y233130D01*
X86457Y233094D01*
X86650Y232969D01*
X86840Y232839D01*
X86889Y232814D01*
X86935Y232784D01*
X87144Y232687D01*
X87350Y232585D01*
X87402Y232568D01*
X87452Y232544D01*
X87673Y232478D01*
X87891Y232405D01*
X87945Y232395D01*
X87997Y232379D01*
X88225Y232344D01*
X88451Y232303D01*
X88506Y232300D01*
X88560Y232292D01*
X88790Y232289D01*
X89021Y232280D01*
X89075Y232285D01*
X89130Y232284D01*
X89359Y232313D01*
X89588Y232336D01*
X89641Y232349D01*
X89695Y232356D01*
X89918Y232417D01*
X90141Y232472D01*
X90192Y232492D01*
X90245Y232507D01*
X90456Y232598D01*
X90670Y232683D01*
X90718Y232711D01*
X90768Y232733D01*
X90965Y232852D01*
X91164Y232967D01*
X91198Y232995D01*
X91254Y233029D01*
X91695Y233391D01*
X91739Y233440D01*
X91773Y233468D01*
X97296Y238991D01*
X105904Y238991D01*
X111427Y233468D01*
X111601Y233317D01*
X111770Y233161D01*
X111816Y233130D01*
X111857Y233094D01*
X112050Y232969D01*
X112240Y232839D01*
X112289Y232814D01*
X112335Y232784D01*
X112544Y232687D01*
X112750Y232585D01*
X112802Y232568D01*
X112852Y232544D01*
X113072Y232478D01*
X113291Y232405D01*
X113345Y232395D01*
X113397Y232379D01*
X113624Y232344D01*
X113851Y232303D01*
X113906Y232300D01*
X113960Y232292D01*
X114190Y232289D01*
X114421Y232280D01*
X114475Y232285D01*
X114530Y232284D01*
X114758Y232313D01*
X114987Y232336D01*
X115041Y232349D01*
X115095Y232356D01*
X115318Y232417D01*
X115541Y232472D01*
X115592Y232492D01*
X115645Y232507D01*
X115856Y232598D01*
X116070Y232683D01*
X116118Y232711D01*
X116168Y232733D01*
X116365Y232852D01*
X116564Y232967D01*
X116598Y232995D01*
X116654Y233029D01*
X117095Y233391D01*
X117139Y233440D01*
X117173Y233468D01*
X122696Y238991D01*
X131304Y238991D01*
X137391Y232904D01*
X137391Y227762D01*
X137395Y227702D01*
X137393Y227641D01*
X137415Y227418D01*
X137431Y227194D01*
X137443Y227134D01*
X137449Y227075D01*
X137503Y226856D01*
X137550Y226636D01*
X137570Y226580D01*
X137585Y226521D01*
X137668Y226312D01*
X137746Y226101D01*
X137774Y226048D01*
X137796Y225992D01*
X137908Y225797D01*
X138014Y225599D01*
X138050Y225550D01*
X138080Y225498D01*
X138155Y225407D01*
X138351Y225139D01*
X138508Y224978D01*
X138581Y224889D01*
X165299Y198171D01*
X165386Y198095D01*
X165466Y198013D01*
X165601Y197909D01*
X165729Y197797D01*
X165826Y197734D01*
X165917Y197664D01*
X166065Y197580D01*
X166207Y197487D01*
X166312Y197439D01*
X166412Y197382D01*
X166570Y197319D01*
X166724Y197247D01*
X166834Y197214D01*
X166941Y197172D01*
X167107Y197131D01*
X167269Y197082D01*
X167383Y197065D01*
X167495Y197037D01*
X167665Y197021D01*
X167832Y196995D01*
X167947Y196993D01*
X168062Y196982D01*
X168232Y196990D01*
X168402Y196987D01*
X168516Y197002D01*
X168632Y197007D01*
X168799Y197038D01*
X168967Y197059D01*
X169079Y197090D01*
X169192Y197111D01*
X169353Y197165D01*
X169517Y197210D01*
X169623Y197255D01*
X169732Y197292D01*
X169884Y197368D01*
X170040Y197436D01*
X170138Y197496D01*
X170241Y197547D01*
X170381Y197644D01*
X170526Y197732D01*
X170615Y197806D01*
X170710Y197871D01*
X170835Y197987D01*
X170967Y198094D01*
X171044Y198179D01*
X171129Y198257D01*
X171237Y198389D01*
X171352Y198514D01*
X171417Y198609D01*
X171490Y198698D01*
X171578Y198844D01*
X171674Y198984D01*
X171726Y199087D01*
X171785Y199186D01*
X171852Y199342D01*
X171928Y199494D01*
X171964Y199604D01*
X172010Y199709D01*
X172054Y199873D01*
X172108Y200035D01*
X172129Y200148D01*
X172159Y200259D01*
X172170Y200374D01*
X172210Y200595D01*
X172224Y200927D01*
X172235Y201044D01*
X172235Y217787D01*
X172231Y217847D01*
X172233Y217908D01*
X172211Y218131D01*
X172195Y218355D01*
X172183Y218415D01*
X172177Y218474D01*
X172123Y218693D01*
X172076Y218913D01*
X172056Y218969D01*
X172041Y219028D01*
X171958Y219237D01*
X171880Y219448D01*
X171852Y219501D01*
X171830Y219557D01*
X171718Y219752D01*
X171612Y219950D01*
X171576Y219999D01*
X171546Y220051D01*
X171471Y220142D01*
X171275Y220410D01*
X171118Y220571D01*
X171045Y220660D01*
X167409Y224296D01*
X167409Y232904D01*
X173496Y238991D01*
X182104Y238991D01*
X187627Y233468D01*
X187801Y233317D01*
X187970Y233161D01*
X188016Y233130D01*
X188057Y233094D01*
X188250Y232969D01*
X188440Y232839D01*
X188489Y232814D01*
X188535Y232784D01*
X188744Y232687D01*
X188950Y232585D01*
X189002Y232568D01*
X189052Y232544D01*
X189272Y232478D01*
X189491Y232405D01*
X189545Y232395D01*
X189597Y232379D01*
X189824Y232344D01*
X190051Y232303D01*
X190106Y232300D01*
X190160Y232292D01*
X190390Y232289D01*
X190621Y232280D01*
X190675Y232285D01*
X190730Y232284D01*
X190958Y232313D01*
X191187Y232336D01*
X191241Y232349D01*
X191295Y232356D01*
X191518Y232417D01*
X191741Y232472D01*
X191792Y232492D01*
X191845Y232507D01*
X192056Y232598D01*
X192270Y232683D01*
X192318Y232711D01*
X192368Y232733D01*
X192565Y232852D01*
X192764Y232967D01*
X192798Y232995D01*
X192854Y233029D01*
X193295Y233391D01*
X193339Y233440D01*
X193373Y233468D01*
X198896Y238991D01*
X207504Y238991D01*
X213027Y233468D01*
X213201Y233317D01*
X213370Y233161D01*
X213416Y233130D01*
X213457Y233094D01*
X213650Y232969D01*
X213840Y232839D01*
X213889Y232814D01*
X213935Y232784D01*
X214144Y232687D01*
X214350Y232585D01*
X214402Y232568D01*
X214452Y232544D01*
X214672Y232478D01*
X214891Y232405D01*
X214945Y232395D01*
X214997Y232379D01*
X215224Y232344D01*
X215451Y232303D01*
X215506Y232300D01*
X215560Y232292D01*
X215790Y232289D01*
X216021Y232280D01*
X216075Y232285D01*
X216130Y232284D01*
X216358Y232313D01*
X216587Y232336D01*
X216641Y232349D01*
X216695Y232356D01*
X216918Y232417D01*
X217141Y232472D01*
X217192Y232492D01*
X217245Y232507D01*
X217456Y232598D01*
X217670Y232683D01*
X217718Y232711D01*
X217768Y232733D01*
X217965Y232852D01*
X218164Y232967D01*
X218198Y232995D01*
X218254Y233029D01*
X218695Y233391D01*
X218739Y233440D01*
X218773Y233468D01*
X224296Y238991D01*
X232904Y238991D01*
X238427Y233468D01*
X238601Y233317D01*
X238770Y233161D01*
X238816Y233130D01*
X238857Y233094D01*
X239050Y232969D01*
X239240Y232839D01*
X239289Y232814D01*
X239335Y232784D01*
X239544Y232687D01*
X239750Y232585D01*
X239802Y232568D01*
X239852Y232544D01*
X240072Y232478D01*
X240291Y232405D01*
X240345Y232395D01*
X240397Y232379D01*
X240624Y232344D01*
X240851Y232303D01*
X240906Y232300D01*
X240960Y232292D01*
X241190Y232289D01*
X241421Y232280D01*
X241475Y232285D01*
X241530Y232284D01*
X241758Y232313D01*
X241987Y232336D01*
X242041Y232349D01*
X242095Y232356D01*
X242318Y232417D01*
X242541Y232472D01*
X242592Y232492D01*
X242645Y232507D01*
X242856Y232598D01*
X243070Y232683D01*
X243118Y232711D01*
X243168Y232733D01*
X243365Y232852D01*
X243564Y232967D01*
X243598Y232995D01*
X243654Y233029D01*
X244095Y233391D01*
X244139Y233440D01*
X244173Y233468D01*
X249696Y238991D01*
X258304Y238991D01*
X264391Y232904D01*
X264391Y224296D01*
X258304Y218209D01*
X249696Y218209D01*
X244173Y223732D01*
X243999Y223883D01*
X243830Y224039D01*
X243784Y224070D01*
X243743Y224106D01*
X243550Y224231D01*
X243360Y224361D01*
X243311Y224386D01*
X243265Y224416D01*
X243056Y224513D01*
X242850Y224615D01*
X242798Y224632D01*
X242748Y224656D01*
X242528Y224722D01*
X242309Y224795D01*
X242255Y224805D01*
X242203Y224821D01*
X241976Y224856D01*
X241749Y224897D01*
X241694Y224900D01*
X241640Y224908D01*
X241410Y224911D01*
X241179Y224920D01*
X241125Y224915D01*
X241070Y224916D01*
X240841Y224887D01*
X240612Y224864D01*
X240559Y224851D01*
X240505Y224844D01*
X240282Y224783D01*
X240059Y224728D01*
X240008Y224708D01*
X239955Y224693D01*
X239744Y224602D01*
X239530Y224517D01*
X239482Y224489D01*
X239432Y224467D01*
X239235Y224348D01*
X239036Y224233D01*
X239002Y224205D01*
X238946Y224171D01*
X238505Y223809D01*
X238461Y223760D01*
X238427Y223732D01*
X235355Y220660D01*
X235315Y220615D01*
X235271Y220574D01*
X235129Y220400D01*
X234981Y220230D01*
X234948Y220179D01*
X234910Y220133D01*
X234793Y219940D01*
X234671Y219752D01*
X234646Y219697D01*
X234615Y219645D01*
X234526Y219439D01*
X234431Y219235D01*
X234414Y219177D01*
X234390Y219122D01*
X234332Y218905D01*
X234266Y218690D01*
X234257Y218630D01*
X234241Y218572D01*
X234230Y218455D01*
X234179Y218127D01*
X234176Y217902D01*
X234165Y217787D01*
X234165Y161793D01*
X233318Y159748D01*
X218337Y144767D01*
X218297Y144722D01*
X218253Y144681D01*
X218111Y144507D01*
X217963Y144337D01*
X217930Y144286D01*
X217892Y144240D01*
X217775Y144047D01*
X217653Y143859D01*
X217628Y143804D01*
X217597Y143752D01*
X217508Y143546D01*
X217413Y143342D01*
X217396Y143284D01*
X217372Y143229D01*
X217314Y143012D01*
X217248Y142797D01*
X217239Y142737D01*
X217223Y142679D01*
X217212Y142562D01*
X217161Y142234D01*
X217158Y142009D01*
X217147Y141894D01*
X217147Y96775D01*
X216300Y94730D01*
X214163Y92593D01*
X185876Y64306D01*
X185874Y64304D01*
X185872Y64302D01*
X185693Y64096D01*
X185502Y63876D01*
X185501Y63874D01*
X185499Y63872D01*
X185343Y63631D01*
X185192Y63398D01*
X185191Y63395D01*
X185190Y63393D01*
X185071Y63136D01*
X184953Y62881D01*
X184952Y62878D01*
X184951Y62876D01*
X184870Y62609D01*
X184787Y62336D01*
X184787Y62333D01*
X184786Y62330D01*
X184742Y62045D01*
X184700Y61773D01*
X184700Y61770D01*
X184700Y61767D01*
X184696Y61479D01*
X184692Y61203D01*
X184693Y61200D01*
X184693Y61197D01*
X184728Y60925D01*
X184764Y60638D01*
X184765Y60635D01*
X184766Y60632D01*
X184769Y60620D01*
X184915Y60088D01*
X184970Y59960D01*
X184995Y59878D01*
X186051Y57330D01*
X186051Y49870D01*
X183196Y42979D01*
X177921Y37704D01*
X171030Y34849D01*
X163570Y34849D01*
G37*
%LPD*%
G36*
X150349Y112851D02*
X150349Y112851D01*
X150465Y112846D01*
X150634Y112863D01*
X150804Y112871D01*
X150917Y112892D01*
X151032Y112903D01*
X151197Y112944D01*
X151364Y112975D01*
X151473Y113011D01*
X151585Y113039D01*
X151743Y113102D01*
X151904Y113156D01*
X152007Y113208D01*
X152114Y113250D01*
X152261Y113335D01*
X152413Y113411D01*
X152508Y113477D01*
X152608Y113534D01*
X152697Y113607D01*
X152882Y113735D01*
X153126Y113960D01*
X153217Y114035D01*
X156679Y117496D01*
X163570Y120351D01*
X171030Y120351D01*
X175076Y118675D01*
X175078Y118674D01*
X175081Y118673D01*
X175341Y118586D01*
X175616Y118494D01*
X175619Y118494D01*
X175621Y118493D01*
X175900Y118442D01*
X176177Y118391D01*
X176179Y118391D01*
X176182Y118390D01*
X176471Y118379D01*
X176746Y118367D01*
X176749Y118367D01*
X176751Y118367D01*
X177027Y118395D01*
X177313Y118423D01*
X177316Y118424D01*
X177318Y118424D01*
X177587Y118490D01*
X177866Y118558D01*
X177869Y118559D01*
X177872Y118560D01*
X178133Y118664D01*
X178396Y118769D01*
X178398Y118770D01*
X178401Y118771D01*
X178646Y118912D01*
X178890Y119052D01*
X178893Y119053D01*
X178895Y119055D01*
X178905Y119063D01*
X179341Y119401D01*
X179438Y119501D01*
X179504Y119556D01*
X192635Y132687D01*
X192675Y132732D01*
X192719Y132773D01*
X192861Y132947D01*
X193009Y133117D01*
X193042Y133168D01*
X193080Y133214D01*
X193197Y133407D01*
X193319Y133595D01*
X193344Y133650D01*
X193375Y133702D01*
X193464Y133908D01*
X193559Y134112D01*
X193576Y134170D01*
X193600Y134225D01*
X193659Y134442D01*
X193724Y134657D01*
X193733Y134717D01*
X193749Y134775D01*
X193760Y134892D01*
X193811Y135220D01*
X193814Y135445D01*
X193825Y135560D01*
X193825Y144212D01*
X193821Y144270D01*
X193824Y144327D01*
X193801Y144553D01*
X193785Y144781D01*
X193773Y144837D01*
X193768Y144895D01*
X193714Y145115D01*
X193666Y145338D01*
X193646Y145392D01*
X193633Y145448D01*
X193549Y145660D01*
X193470Y145873D01*
X193443Y145924D01*
X193422Y145977D01*
X193309Y146175D01*
X193202Y146375D01*
X193168Y146422D01*
X193139Y146472D01*
X193000Y146652D01*
X192865Y146835D01*
X192825Y146877D01*
X192790Y146922D01*
X192627Y147081D01*
X192468Y147244D01*
X192422Y147279D01*
X192381Y147319D01*
X192197Y147453D01*
X192017Y147592D01*
X191967Y147621D01*
X191920Y147655D01*
X191720Y147762D01*
X191522Y147875D01*
X191469Y147896D01*
X191418Y147923D01*
X191204Y148001D01*
X190993Y148085D01*
X190937Y148098D01*
X190882Y148118D01*
X190660Y148165D01*
X190439Y148219D01*
X190381Y148224D01*
X190325Y148236D01*
X190098Y148252D01*
X189872Y148274D01*
X189814Y148272D01*
X189757Y148276D01*
X189530Y148259D01*
X189302Y148250D01*
X189246Y148239D01*
X189188Y148235D01*
X188966Y148187D01*
X188742Y148146D01*
X188688Y148127D01*
X188631Y148115D01*
X188418Y148037D01*
X188202Y147964D01*
X188150Y147938D01*
X188096Y147919D01*
X187897Y147811D01*
X187693Y147709D01*
X187645Y147676D01*
X187594Y147649D01*
X187411Y147515D01*
X187224Y147385D01*
X187181Y147346D01*
X187135Y147312D01*
X186972Y147153D01*
X186805Y146999D01*
X186768Y146954D01*
X186727Y146914D01*
X186588Y146734D01*
X186444Y146558D01*
X186414Y146509D01*
X186379Y146463D01*
X186324Y146360D01*
X186149Y146071D01*
X186062Y145868D01*
X186008Y145767D01*
X183196Y138979D01*
X177921Y133704D01*
X171030Y130849D01*
X163570Y130849D01*
X156679Y133704D01*
X151404Y138979D01*
X148549Y145870D01*
X148549Y153330D01*
X151404Y160221D01*
X151597Y160415D01*
X151748Y160589D01*
X151904Y160758D01*
X151935Y160803D01*
X151971Y160845D01*
X152096Y161038D01*
X152226Y161228D01*
X152251Y161277D01*
X152281Y161323D01*
X152378Y161532D01*
X152480Y161738D01*
X152497Y161790D01*
X152521Y161840D01*
X152587Y162060D01*
X152660Y162279D01*
X152670Y162333D01*
X152686Y162385D01*
X152721Y162612D01*
X152762Y162839D01*
X152765Y162894D01*
X152773Y162948D01*
X152776Y163178D01*
X152786Y163408D01*
X152780Y163463D01*
X152781Y163518D01*
X152752Y163746D01*
X152729Y163975D01*
X152716Y164029D01*
X152709Y164083D01*
X152648Y164305D01*
X152593Y164529D01*
X152573Y164580D01*
X152558Y164633D01*
X152467Y164844D01*
X152382Y165058D01*
X152354Y165106D01*
X152332Y165156D01*
X152213Y165352D01*
X152098Y165552D01*
X152070Y165586D01*
X152036Y165642D01*
X151674Y166082D01*
X151626Y166127D01*
X151597Y166161D01*
X134775Y182983D01*
X134730Y183023D01*
X134689Y183067D01*
X134515Y183209D01*
X134345Y183357D01*
X134294Y183390D01*
X134248Y183428D01*
X134055Y183545D01*
X133867Y183667D01*
X133812Y183692D01*
X133760Y183723D01*
X133554Y183812D01*
X133350Y183907D01*
X133292Y183924D01*
X133237Y183948D01*
X133020Y184006D01*
X132805Y184072D01*
X132745Y184081D01*
X132687Y184097D01*
X132570Y184108D01*
X132242Y184159D01*
X132017Y184162D01*
X131902Y184173D01*
X113955Y184173D01*
X111910Y185020D01*
X79911Y217019D01*
X79866Y217059D01*
X79825Y217103D01*
X79651Y217245D01*
X79481Y217393D01*
X79430Y217426D01*
X79384Y217464D01*
X79191Y217581D01*
X79003Y217703D01*
X78948Y217728D01*
X78896Y217759D01*
X78690Y217848D01*
X78486Y217943D01*
X78428Y217960D01*
X78373Y217984D01*
X78156Y218042D01*
X77941Y218108D01*
X77881Y218117D01*
X77823Y218133D01*
X77706Y218144D01*
X77378Y218195D01*
X77153Y218198D01*
X77038Y218209D01*
X71896Y218209D01*
X66373Y223732D01*
X66199Y223883D01*
X66030Y224039D01*
X65984Y224070D01*
X65943Y224106D01*
X65750Y224231D01*
X65560Y224361D01*
X65511Y224386D01*
X65465Y224416D01*
X65256Y224513D01*
X65050Y224615D01*
X64998Y224632D01*
X64948Y224656D01*
X64727Y224722D01*
X64509Y224795D01*
X64455Y224805D01*
X64403Y224821D01*
X64175Y224856D01*
X63949Y224897D01*
X63894Y224900D01*
X63840Y224908D01*
X63610Y224911D01*
X63379Y224920D01*
X63325Y224915D01*
X63270Y224916D01*
X63041Y224887D01*
X62812Y224864D01*
X62759Y224851D01*
X62705Y224844D01*
X62482Y224783D01*
X62259Y224728D01*
X62208Y224708D01*
X62155Y224693D01*
X61944Y224602D01*
X61730Y224517D01*
X61682Y224489D01*
X61632Y224467D01*
X61435Y224348D01*
X61236Y224233D01*
X61202Y224205D01*
X61146Y224171D01*
X60705Y223809D01*
X60661Y223760D01*
X60627Y223732D01*
X55104Y218209D01*
X50848Y218209D01*
X50619Y218193D01*
X50388Y218183D01*
X50334Y218173D01*
X50280Y218169D01*
X50054Y218121D01*
X49828Y218079D01*
X49776Y218062D01*
X49722Y218050D01*
X49506Y217971D01*
X49288Y217898D01*
X49239Y217873D01*
X49187Y217854D01*
X48984Y217746D01*
X48779Y217643D01*
X48733Y217612D01*
X48685Y217586D01*
X48499Y217450D01*
X48310Y217319D01*
X48269Y217282D01*
X48225Y217249D01*
X48060Y217089D01*
X47891Y216933D01*
X47856Y216890D01*
X47817Y216852D01*
X47676Y216670D01*
X47530Y216492D01*
X47502Y216444D01*
X47468Y216401D01*
X47354Y216201D01*
X47235Y216004D01*
X47213Y215954D01*
X47186Y215906D01*
X47101Y215692D01*
X47010Y215481D01*
X46996Y215428D01*
X46976Y215377D01*
X46921Y215152D01*
X46861Y214931D01*
X46857Y214887D01*
X46841Y214823D01*
X46786Y214256D01*
X46789Y214190D01*
X46785Y214146D01*
X46785Y205419D01*
X46789Y205359D01*
X46787Y205298D01*
X46809Y205075D01*
X46825Y204850D01*
X46837Y204791D01*
X46843Y204731D01*
X46897Y204513D01*
X46944Y204293D01*
X46964Y204237D01*
X46979Y204178D01*
X47062Y203969D01*
X47140Y203758D01*
X47168Y203705D01*
X47190Y203649D01*
X47302Y203454D01*
X47408Y203256D01*
X47444Y203207D01*
X47474Y203154D01*
X47549Y203063D01*
X47745Y202796D01*
X47902Y202635D01*
X47975Y202546D01*
X53520Y197001D01*
X53565Y196961D01*
X53606Y196917D01*
X53780Y196775D01*
X53950Y196627D01*
X54000Y196594D01*
X54047Y196556D01*
X54239Y196439D01*
X54428Y196317D01*
X54483Y196292D01*
X54534Y196261D01*
X54741Y196172D01*
X54945Y196077D01*
X55003Y196060D01*
X55058Y196036D01*
X55275Y195978D01*
X55490Y195912D01*
X55550Y195903D01*
X55608Y195887D01*
X55725Y195876D01*
X56053Y195825D01*
X56278Y195822D01*
X56393Y195811D01*
X76037Y195811D01*
X78082Y194964D01*
X93364Y179682D01*
X94211Y177637D01*
X94211Y165838D01*
X94219Y165723D01*
X94217Y165608D01*
X94239Y165439D01*
X94251Y165269D01*
X94275Y165157D01*
X94289Y165042D01*
X94334Y164878D01*
X94370Y164712D01*
X94409Y164604D01*
X94440Y164493D01*
X94507Y164337D01*
X94566Y164177D01*
X94620Y164075D01*
X94666Y163970D01*
X94754Y163825D01*
X94834Y163675D01*
X94902Y163582D01*
X94962Y163483D01*
X95070Y163352D01*
X95171Y163215D01*
X95251Y163132D01*
X95324Y163043D01*
X95450Y162928D01*
X95568Y162807D01*
X95659Y162736D01*
X95744Y162658D01*
X95885Y162562D01*
X96019Y162458D01*
X96119Y162401D01*
X96214Y162335D01*
X96366Y162260D01*
X96514Y162176D01*
X96621Y162133D01*
X96724Y162082D01*
X96885Y162028D01*
X97043Y161965D01*
X97156Y161938D01*
X97265Y161902D01*
X97432Y161871D01*
X97597Y161831D01*
X97712Y161820D01*
X97825Y161799D01*
X97995Y161793D01*
X98164Y161776D01*
X98279Y161781D01*
X98395Y161776D01*
X98564Y161793D01*
X98734Y161801D01*
X98847Y161822D01*
X98962Y161833D01*
X99127Y161874D01*
X99294Y161905D01*
X99403Y161941D01*
X99515Y161969D01*
X99673Y162032D01*
X99834Y162086D01*
X99937Y162138D01*
X100044Y162180D01*
X100191Y162265D01*
X100343Y162341D01*
X100438Y162406D01*
X100538Y162464D01*
X100627Y162537D01*
X100812Y162665D01*
X101056Y162890D01*
X101147Y162965D01*
X103679Y165496D01*
X110570Y168351D01*
X118030Y168351D01*
X124921Y165496D01*
X130196Y160221D01*
X133051Y153330D01*
X133051Y145870D01*
X131995Y143322D01*
X131994Y143319D01*
X131993Y143317D01*
X131906Y143056D01*
X131815Y142781D01*
X131814Y142779D01*
X131813Y142776D01*
X131763Y142500D01*
X131711Y142221D01*
X131711Y142219D01*
X131711Y142216D01*
X131699Y141927D01*
X131687Y141652D01*
X131688Y141649D01*
X131688Y141646D01*
X131715Y141371D01*
X131743Y141085D01*
X131744Y141082D01*
X131744Y141079D01*
X131811Y140808D01*
X131878Y140531D01*
X131879Y140529D01*
X131880Y140526D01*
X131988Y140257D01*
X132089Y140002D01*
X132091Y140000D01*
X132092Y139997D01*
X132235Y139747D01*
X132372Y139507D01*
X132374Y139505D01*
X132375Y139503D01*
X132384Y139492D01*
X132721Y139057D01*
X132822Y138960D01*
X132876Y138894D01*
X143297Y128473D01*
X145434Y126336D01*
X146281Y124291D01*
X146281Y116908D01*
X146289Y116793D01*
X146287Y116678D01*
X146309Y116509D01*
X146321Y116339D01*
X146345Y116227D01*
X146359Y116112D01*
X146404Y115948D01*
X146440Y115782D01*
X146479Y115674D01*
X146510Y115563D01*
X146577Y115407D01*
X146636Y115247D01*
X146690Y115145D01*
X146736Y115040D01*
X146824Y114895D01*
X146904Y114745D01*
X146972Y114652D01*
X147032Y114553D01*
X147140Y114422D01*
X147241Y114285D01*
X147321Y114202D01*
X147394Y114113D01*
X147520Y113998D01*
X147638Y113877D01*
X147729Y113806D01*
X147814Y113728D01*
X147954Y113632D01*
X148089Y113528D01*
X148189Y113471D01*
X148284Y113406D01*
X148436Y113330D01*
X148584Y113246D01*
X148691Y113203D01*
X148794Y113152D01*
X148955Y113098D01*
X149113Y113035D01*
X149226Y113008D01*
X149335Y112972D01*
X149502Y112941D01*
X149667Y112901D01*
X149782Y112890D01*
X149895Y112869D01*
X150065Y112863D01*
X150234Y112846D01*
X150349Y112851D01*
G37*
G36*
X189880Y150936D02*
X189880Y150936D01*
X190107Y150939D01*
X190164Y150948D01*
X190222Y150950D01*
X190445Y150992D01*
X190670Y151027D01*
X190725Y151044D01*
X190782Y151054D01*
X190998Y151127D01*
X191215Y151193D01*
X191267Y151217D01*
X191322Y151236D01*
X191526Y151338D01*
X191732Y151434D01*
X191780Y151465D01*
X191831Y151491D01*
X192019Y151620D01*
X192209Y151744D01*
X192253Y151782D01*
X192300Y151815D01*
X192468Y151969D01*
X192639Y152118D01*
X192677Y152162D01*
X192719Y152201D01*
X192864Y152378D01*
X193012Y152549D01*
X193043Y152597D01*
X193080Y152642D01*
X193198Y152836D01*
X193321Y153028D01*
X193346Y153080D01*
X193375Y153129D01*
X193465Y153338D01*
X193560Y153545D01*
X193577Y153600D01*
X193600Y153653D01*
X193659Y153872D01*
X193725Y154090D01*
X193734Y154147D01*
X193749Y154203D01*
X193760Y154319D01*
X193811Y154653D01*
X193814Y154874D01*
X193825Y154988D01*
X193825Y177114D01*
X193821Y177174D01*
X193823Y177234D01*
X193801Y177458D01*
X193785Y177682D01*
X193773Y177742D01*
X193767Y177801D01*
X193713Y178020D01*
X193666Y178240D01*
X193646Y178296D01*
X193631Y178355D01*
X193548Y178564D01*
X193470Y178775D01*
X193442Y178828D01*
X193420Y178884D01*
X193308Y179079D01*
X193202Y179277D01*
X193166Y179326D01*
X193136Y179378D01*
X193061Y179469D01*
X192865Y179737D01*
X192708Y179898D01*
X192635Y179987D01*
X182999Y189623D01*
X182868Y189737D01*
X182745Y189857D01*
X182654Y189923D01*
X182569Y189997D01*
X182424Y190091D01*
X182284Y190193D01*
X182185Y190246D01*
X182091Y190307D01*
X181934Y190380D01*
X181781Y190461D01*
X181676Y190499D01*
X181574Y190547D01*
X181408Y190597D01*
X181246Y190656D01*
X181136Y190679D01*
X181028Y190712D01*
X180858Y190738D01*
X180689Y190774D01*
X180576Y190782D01*
X180465Y190799D01*
X180293Y190802D01*
X180120Y190814D01*
X180008Y190805D01*
X179896Y190807D01*
X179724Y190785D01*
X179552Y190773D01*
X179442Y190749D01*
X179330Y190735D01*
X179164Y190689D01*
X178995Y190653D01*
X178889Y190614D01*
X178781Y190585D01*
X178622Y190516D01*
X178460Y190456D01*
X178361Y190403D01*
X178258Y190359D01*
X178110Y190269D01*
X177958Y190187D01*
X177867Y190121D01*
X177771Y190062D01*
X177638Y189952D01*
X177499Y189850D01*
X177418Y189771D01*
X177331Y189700D01*
X177214Y189573D01*
X177091Y189452D01*
X177022Y189363D01*
X176946Y189280D01*
X176848Y189138D01*
X176743Y189001D01*
X176702Y188925D01*
X176623Y188810D01*
X176378Y188317D01*
X176372Y188305D01*
X175660Y186586D01*
X174094Y185020D01*
X172049Y184173D01*
X164755Y184173D01*
X162710Y185020D01*
X130711Y217019D01*
X130666Y217059D01*
X130625Y217103D01*
X130451Y217245D01*
X130281Y217393D01*
X130230Y217426D01*
X130184Y217464D01*
X129991Y217581D01*
X129803Y217703D01*
X129748Y217728D01*
X129696Y217759D01*
X129490Y217848D01*
X129286Y217943D01*
X129228Y217960D01*
X129173Y217984D01*
X128956Y218042D01*
X128741Y218108D01*
X128681Y218117D01*
X128623Y218133D01*
X128506Y218144D01*
X128178Y218195D01*
X127953Y218198D01*
X127838Y218209D01*
X122696Y218209D01*
X117173Y223732D01*
X116999Y223883D01*
X116830Y224039D01*
X116784Y224070D01*
X116743Y224106D01*
X116550Y224231D01*
X116360Y224361D01*
X116311Y224386D01*
X116265Y224416D01*
X116056Y224513D01*
X115850Y224615D01*
X115798Y224632D01*
X115748Y224656D01*
X115527Y224722D01*
X115309Y224795D01*
X115255Y224805D01*
X115203Y224821D01*
X114975Y224856D01*
X114749Y224897D01*
X114694Y224900D01*
X114640Y224908D01*
X114410Y224911D01*
X114179Y224920D01*
X114125Y224915D01*
X114070Y224916D01*
X113841Y224887D01*
X113612Y224864D01*
X113559Y224851D01*
X113505Y224844D01*
X113282Y224783D01*
X113059Y224728D01*
X113008Y224708D01*
X112955Y224693D01*
X112744Y224602D01*
X112530Y224517D01*
X112482Y224489D01*
X112432Y224467D01*
X112235Y224348D01*
X112036Y224233D01*
X112002Y224205D01*
X111946Y224171D01*
X111505Y223809D01*
X111461Y223760D01*
X111427Y223732D01*
X105904Y218209D01*
X104270Y218209D01*
X104155Y218201D01*
X104040Y218203D01*
X103871Y218181D01*
X103702Y218169D01*
X103589Y218145D01*
X103475Y218131D01*
X103310Y218086D01*
X103144Y218050D01*
X103036Y218011D01*
X102925Y217980D01*
X102769Y217913D01*
X102609Y217854D01*
X102508Y217800D01*
X102402Y217754D01*
X102257Y217666D01*
X102107Y217586D01*
X102014Y217518D01*
X101916Y217458D01*
X101784Y217350D01*
X101647Y217249D01*
X101564Y217169D01*
X101475Y217096D01*
X101361Y216971D01*
X101239Y216852D01*
X101168Y216761D01*
X101090Y216676D01*
X100994Y216536D01*
X100890Y216401D01*
X100833Y216301D01*
X100768Y216206D01*
X100692Y216054D01*
X100608Y215906D01*
X100565Y215799D01*
X100514Y215696D01*
X100460Y215535D01*
X100398Y215377D01*
X100370Y215264D01*
X100334Y215155D01*
X100304Y214988D01*
X100263Y214823D01*
X100252Y214708D01*
X100232Y214595D01*
X100225Y214425D01*
X100208Y214256D01*
X100213Y214141D01*
X100209Y214025D01*
X100225Y213856D01*
X100233Y213686D01*
X100254Y213573D01*
X100265Y213459D01*
X100306Y213293D01*
X100337Y213126D01*
X100373Y213017D01*
X100401Y212905D01*
X100464Y212747D01*
X100518Y212586D01*
X100570Y212483D01*
X100612Y212376D01*
X100697Y212229D01*
X100773Y212077D01*
X100839Y211982D01*
X100896Y211882D01*
X100969Y211793D01*
X101097Y211608D01*
X101322Y211364D01*
X101397Y211273D01*
X116177Y196493D01*
X116222Y196453D01*
X116263Y196409D01*
X116437Y196267D01*
X116607Y196119D01*
X116658Y196086D01*
X116704Y196048D01*
X116897Y195931D01*
X117085Y195809D01*
X117140Y195784D01*
X117192Y195753D01*
X117398Y195664D01*
X117602Y195569D01*
X117660Y195552D01*
X117715Y195528D01*
X117932Y195469D01*
X118147Y195404D01*
X118207Y195395D01*
X118265Y195379D01*
X118382Y195368D01*
X118710Y195317D01*
X118935Y195314D01*
X119050Y195303D01*
X136997Y195303D01*
X139042Y194456D01*
X163957Y169541D01*
X164002Y169501D01*
X164043Y169457D01*
X164217Y169315D01*
X164387Y169167D01*
X164438Y169134D01*
X164484Y169096D01*
X164677Y168979D01*
X164865Y168857D01*
X164920Y168832D01*
X164972Y168801D01*
X165178Y168712D01*
X165382Y168617D01*
X165440Y168600D01*
X165495Y168576D01*
X165712Y168518D01*
X165927Y168452D01*
X165987Y168443D01*
X166045Y168427D01*
X166162Y168416D01*
X166490Y168365D01*
X166715Y168362D01*
X166830Y168351D01*
X171030Y168351D01*
X177921Y165496D01*
X183196Y160221D01*
X186008Y153433D01*
X186034Y153381D01*
X186054Y153327D01*
X186161Y153126D01*
X186262Y152923D01*
X186295Y152875D01*
X186322Y152825D01*
X186457Y152641D01*
X186586Y152454D01*
X186625Y152411D01*
X186659Y152365D01*
X186817Y152202D01*
X186971Y152034D01*
X187016Y151998D01*
X187056Y151956D01*
X187236Y151817D01*
X187412Y151673D01*
X187461Y151643D01*
X187507Y151608D01*
X187704Y151495D01*
X187899Y151377D01*
X187952Y151354D01*
X188002Y151325D01*
X188214Y151241D01*
X188422Y151152D01*
X188478Y151137D01*
X188531Y151115D01*
X188753Y151062D01*
X188972Y151002D01*
X189029Y150995D01*
X189085Y150981D01*
X189312Y150959D01*
X189537Y150931D01*
X189595Y150931D01*
X189652Y150926D01*
X189880Y150936D01*
G37*
G36*
X209023Y152877D02*
X209023Y152877D01*
X209139Y152873D01*
X209308Y152889D01*
X209478Y152897D01*
X209591Y152918D01*
X209705Y152929D01*
X209871Y152970D01*
X210038Y153001D01*
X210147Y153037D01*
X210259Y153065D01*
X210417Y153128D01*
X210578Y153182D01*
X210681Y153234D01*
X210788Y153276D01*
X210935Y153361D01*
X211087Y153437D01*
X211182Y153503D01*
X211282Y153560D01*
X211371Y153633D01*
X211556Y153761D01*
X211800Y153986D01*
X211891Y154061D01*
X221845Y164015D01*
X221885Y164060D01*
X221929Y164101D01*
X222071Y164275D01*
X222219Y164445D01*
X222252Y164496D01*
X222290Y164542D01*
X222407Y164735D01*
X222529Y164923D01*
X222554Y164978D01*
X222585Y165030D01*
X222674Y165236D01*
X222769Y165440D01*
X222786Y165498D01*
X222810Y165553D01*
X222869Y165770D01*
X222934Y165985D01*
X222943Y166045D01*
X222959Y166103D01*
X222970Y166220D01*
X223021Y166548D01*
X223024Y166773D01*
X223035Y166888D01*
X223035Y217787D01*
X223031Y217847D01*
X223033Y217908D01*
X223011Y218131D01*
X222995Y218355D01*
X222983Y218415D01*
X222977Y218475D01*
X222923Y218693D01*
X222876Y218913D01*
X222856Y218969D01*
X222841Y219028D01*
X222758Y219237D01*
X222680Y219448D01*
X222652Y219501D01*
X222629Y219557D01*
X222518Y219752D01*
X222412Y219950D01*
X222376Y219999D01*
X222346Y220051D01*
X222271Y220142D01*
X222075Y220410D01*
X221918Y220571D01*
X221845Y220660D01*
X218773Y223732D01*
X218600Y223883D01*
X218430Y224039D01*
X218384Y224070D01*
X218343Y224106D01*
X218150Y224231D01*
X217960Y224361D01*
X217911Y224386D01*
X217865Y224416D01*
X217656Y224512D01*
X217450Y224615D01*
X217398Y224632D01*
X217348Y224656D01*
X217128Y224722D01*
X216909Y224795D01*
X216855Y224805D01*
X216803Y224821D01*
X216576Y224856D01*
X216349Y224897D01*
X216294Y224900D01*
X216240Y224908D01*
X216010Y224911D01*
X215779Y224920D01*
X215725Y224915D01*
X215670Y224916D01*
X215441Y224887D01*
X215212Y224864D01*
X215159Y224851D01*
X215105Y224844D01*
X214882Y224783D01*
X214659Y224728D01*
X214608Y224708D01*
X214555Y224693D01*
X214344Y224602D01*
X214130Y224517D01*
X214082Y224489D01*
X214032Y224467D01*
X213836Y224348D01*
X213636Y224233D01*
X213601Y224205D01*
X213546Y224171D01*
X213105Y223809D01*
X213061Y223760D01*
X213027Y223732D01*
X207504Y218209D01*
X198896Y218209D01*
X193373Y223732D01*
X193199Y223883D01*
X193030Y224039D01*
X192984Y224070D01*
X192943Y224106D01*
X192750Y224231D01*
X192560Y224361D01*
X192511Y224386D01*
X192465Y224416D01*
X192256Y224512D01*
X192050Y224615D01*
X191998Y224632D01*
X191948Y224656D01*
X191727Y224722D01*
X191509Y224795D01*
X191455Y224805D01*
X191403Y224821D01*
X191175Y224856D01*
X190949Y224897D01*
X190894Y224900D01*
X190840Y224908D01*
X190610Y224911D01*
X190379Y224920D01*
X190325Y224915D01*
X190270Y224916D01*
X190041Y224887D01*
X189812Y224864D01*
X189759Y224851D01*
X189705Y224844D01*
X189482Y224783D01*
X189259Y224728D01*
X189208Y224708D01*
X189155Y224693D01*
X188943Y224602D01*
X188730Y224516D01*
X188682Y224489D01*
X188632Y224467D01*
X188435Y224347D01*
X188236Y224233D01*
X188201Y224205D01*
X188146Y224171D01*
X187705Y223809D01*
X187661Y223760D01*
X187627Y223732D01*
X184555Y220660D01*
X184515Y220615D01*
X184471Y220574D01*
X184328Y220399D01*
X184181Y220230D01*
X184148Y220179D01*
X184110Y220133D01*
X183993Y219940D01*
X183871Y219752D01*
X183846Y219697D01*
X183815Y219645D01*
X183726Y219439D01*
X183631Y219235D01*
X183614Y219177D01*
X183590Y219122D01*
X183531Y218905D01*
X183466Y218690D01*
X183457Y218630D01*
X183441Y218572D01*
X183430Y218455D01*
X183379Y218127D01*
X183376Y217902D01*
X183365Y217787D01*
X183365Y206680D01*
X183369Y206620D01*
X183367Y206559D01*
X183389Y206336D01*
X183405Y206112D01*
X183417Y206052D01*
X183423Y205993D01*
X183477Y205774D01*
X183524Y205554D01*
X183544Y205498D01*
X183559Y205439D01*
X183642Y205230D01*
X183720Y205019D01*
X183748Y204966D01*
X183770Y204910D01*
X183882Y204715D01*
X183988Y204517D01*
X184024Y204468D01*
X184054Y204416D01*
X184129Y204325D01*
X184325Y204057D01*
X184482Y203896D01*
X184555Y203807D01*
X204108Y184254D01*
X204955Y182209D01*
X204955Y156934D01*
X204963Y156819D01*
X204961Y156704D01*
X204983Y156535D01*
X204995Y156366D01*
X205019Y156253D01*
X205033Y156139D01*
X205078Y155974D01*
X205114Y155808D01*
X205153Y155700D01*
X205184Y155589D01*
X205251Y155433D01*
X205310Y155273D01*
X205364Y155172D01*
X205410Y155066D01*
X205498Y154921D01*
X205578Y154771D01*
X205646Y154678D01*
X205706Y154580D01*
X205815Y154448D01*
X205915Y154311D01*
X205995Y154228D01*
X206068Y154139D01*
X206193Y154025D01*
X206312Y153903D01*
X206403Y153832D01*
X206488Y153754D01*
X206628Y153658D01*
X206763Y153554D01*
X206863Y153497D01*
X206958Y153432D01*
X207110Y153356D01*
X207258Y153272D01*
X207365Y153229D01*
X207468Y153178D01*
X207629Y153124D01*
X207787Y153062D01*
X207900Y153034D01*
X208009Y152998D01*
X208176Y152968D01*
X208341Y152927D01*
X208456Y152916D01*
X208569Y152896D01*
X208739Y152889D01*
X208908Y152872D01*
X209023Y152877D01*
G37*
%LPC*%
G36*
X110570Y34849D02*
X110570Y34849D01*
X103679Y37704D01*
X98404Y42979D01*
X95549Y49870D01*
X95549Y57330D01*
X98404Y64221D01*
X103679Y69496D01*
X110570Y72351D01*
X118030Y72351D01*
X124921Y69496D01*
X130196Y64221D01*
X133051Y57330D01*
X133051Y49870D01*
X130196Y42979D01*
X124921Y37704D01*
X118030Y34849D01*
X110570Y34849D01*
G37*
%LPD*%
%LPC*%
G36*
X57570Y34849D02*
X57570Y34849D01*
X50679Y37704D01*
X45404Y42979D01*
X42549Y49870D01*
X42549Y57330D01*
X45404Y64221D01*
X50679Y69496D01*
X57570Y72351D01*
X65030Y72351D01*
X71921Y69496D01*
X77196Y64221D01*
X80051Y57330D01*
X80051Y49870D01*
X77196Y42979D01*
X71921Y37704D01*
X65030Y34849D01*
X57570Y34849D01*
G37*
%LPD*%
G36*
X175251Y70988D02*
X175251Y70988D01*
X175254Y70988D01*
X175529Y71015D01*
X175815Y71043D01*
X175818Y71044D01*
X175821Y71044D01*
X176092Y71111D01*
X176369Y71178D01*
X176371Y71179D01*
X176374Y71180D01*
X176643Y71288D01*
X176898Y71389D01*
X176900Y71391D01*
X176903Y71392D01*
X177153Y71535D01*
X177393Y71672D01*
X177395Y71674D01*
X177397Y71675D01*
X177408Y71684D01*
X177843Y72021D01*
X177940Y72122D01*
X178006Y72176D01*
X204827Y98997D01*
X204867Y99042D01*
X204911Y99083D01*
X205053Y99257D01*
X205201Y99427D01*
X205234Y99478D01*
X205272Y99524D01*
X205389Y99717D01*
X205511Y99905D01*
X205536Y99960D01*
X205567Y100012D01*
X205656Y100218D01*
X205751Y100422D01*
X205768Y100480D01*
X205792Y100535D01*
X205850Y100752D01*
X205916Y100967D01*
X205925Y101027D01*
X205941Y101085D01*
X205952Y101202D01*
X206003Y101530D01*
X206006Y101755D01*
X206017Y101870D01*
X206017Y120520D01*
X206009Y120635D01*
X206011Y120750D01*
X205989Y120919D01*
X205977Y121088D01*
X205953Y121201D01*
X205939Y121315D01*
X205894Y121480D01*
X205858Y121646D01*
X205819Y121754D01*
X205788Y121865D01*
X205721Y122021D01*
X205662Y122181D01*
X205608Y122282D01*
X205562Y122388D01*
X205474Y122533D01*
X205394Y122683D01*
X205326Y122776D01*
X205266Y122874D01*
X205158Y123006D01*
X205057Y123143D01*
X204977Y123226D01*
X204904Y123315D01*
X204779Y123429D01*
X204660Y123551D01*
X204569Y123622D01*
X204484Y123700D01*
X204344Y123796D01*
X204209Y123900D01*
X204109Y123957D01*
X204014Y124022D01*
X203862Y124098D01*
X203714Y124182D01*
X203607Y124225D01*
X203504Y124276D01*
X203343Y124330D01*
X203185Y124392D01*
X203072Y124420D01*
X202963Y124456D01*
X202796Y124486D01*
X202631Y124527D01*
X202516Y124538D01*
X202403Y124558D01*
X202233Y124565D01*
X202064Y124582D01*
X201949Y124577D01*
X201833Y124581D01*
X201664Y124565D01*
X201494Y124557D01*
X201381Y124536D01*
X201267Y124525D01*
X201101Y124484D01*
X200934Y124453D01*
X200825Y124417D01*
X200713Y124389D01*
X200555Y124326D01*
X200394Y124272D01*
X200291Y124220D01*
X200184Y124178D01*
X200037Y124093D01*
X199885Y124017D01*
X199790Y123951D01*
X199690Y123894D01*
X199601Y123821D01*
X199416Y123693D01*
X199172Y123468D01*
X199081Y123393D01*
X186496Y110809D01*
X186494Y110806D01*
X186492Y110805D01*
X186312Y110597D01*
X186123Y110378D01*
X186121Y110376D01*
X186119Y110374D01*
X185965Y110136D01*
X185813Y109900D01*
X185812Y109898D01*
X185810Y109895D01*
X185690Y109635D01*
X185573Y109383D01*
X185572Y109381D01*
X185571Y109378D01*
X185489Y109107D01*
X185408Y108838D01*
X185407Y108835D01*
X185406Y108833D01*
X185363Y108551D01*
X185320Y108275D01*
X185320Y108272D01*
X185320Y108270D01*
X185316Y107982D01*
X185313Y107705D01*
X185313Y107703D01*
X185313Y107700D01*
X185349Y107424D01*
X185385Y107140D01*
X185386Y107137D01*
X185386Y107135D01*
X185390Y107122D01*
X185535Y106590D01*
X185591Y106462D01*
X185615Y106380D01*
X186051Y105330D01*
X186051Y97870D01*
X183196Y90979D01*
X177921Y85704D01*
X171030Y82849D01*
X163570Y82849D01*
X156679Y85704D01*
X153217Y89165D01*
X153130Y89241D01*
X153050Y89323D01*
X152915Y89428D01*
X152787Y89539D01*
X152690Y89602D01*
X152599Y89672D01*
X152452Y89756D01*
X152309Y89849D01*
X152204Y89897D01*
X152104Y89954D01*
X151946Y90017D01*
X151792Y90089D01*
X151682Y90122D01*
X151575Y90165D01*
X151409Y90205D01*
X151247Y90254D01*
X151133Y90272D01*
X151021Y90299D01*
X150851Y90315D01*
X150684Y90341D01*
X150569Y90343D01*
X150454Y90354D01*
X150284Y90347D01*
X150114Y90349D01*
X150000Y90334D01*
X149884Y90329D01*
X149717Y90298D01*
X149549Y90277D01*
X149437Y90246D01*
X149324Y90225D01*
X149163Y90171D01*
X148999Y90126D01*
X148893Y90081D01*
X148784Y90044D01*
X148632Y89968D01*
X148476Y89901D01*
X148378Y89841D01*
X148275Y89789D01*
X148135Y89692D01*
X147990Y89604D01*
X147901Y89531D01*
X147806Y89465D01*
X147681Y89350D01*
X147549Y89242D01*
X147472Y89157D01*
X147387Y89079D01*
X147279Y88947D01*
X147164Y88822D01*
X147099Y88727D01*
X147026Y88638D01*
X146938Y88492D01*
X146842Y88352D01*
X146790Y88249D01*
X146731Y88151D01*
X146664Y87995D01*
X146588Y87842D01*
X146552Y87733D01*
X146506Y87627D01*
X146462Y87463D01*
X146408Y87301D01*
X146387Y87188D01*
X146357Y87077D01*
X146346Y86962D01*
X146306Y86741D01*
X146292Y86409D01*
X146281Y86292D01*
X146281Y84172D01*
X146285Y84112D01*
X146283Y84052D01*
X146305Y83828D01*
X146321Y83604D01*
X146333Y83544D01*
X146339Y83485D01*
X146393Y83266D01*
X146440Y83046D01*
X146460Y82990D01*
X146475Y82931D01*
X146558Y82722D01*
X146636Y82511D01*
X146664Y82458D01*
X146686Y82402D01*
X146798Y82207D01*
X146904Y82009D01*
X146940Y81960D01*
X146970Y81908D01*
X147045Y81817D01*
X147241Y81549D01*
X147398Y81388D01*
X147471Y81299D01*
X156594Y72176D01*
X156596Y72174D01*
X156598Y72172D01*
X156804Y71993D01*
X157024Y71802D01*
X157026Y71801D01*
X157028Y71799D01*
X157264Y71647D01*
X157502Y71492D01*
X157505Y71491D01*
X157507Y71490D01*
X157760Y71373D01*
X158019Y71253D01*
X158022Y71252D01*
X158024Y71251D01*
X158291Y71170D01*
X158564Y71087D01*
X158567Y71087D01*
X158570Y71086D01*
X158855Y71042D01*
X159127Y71000D01*
X159130Y71000D01*
X159133Y71000D01*
X159421Y70996D01*
X159697Y70992D01*
X159700Y70993D01*
X159703Y70993D01*
X159975Y71028D01*
X160262Y71064D01*
X160265Y71065D01*
X160268Y71066D01*
X160280Y71069D01*
X160812Y71215D01*
X160940Y71270D01*
X161022Y71295D01*
X163570Y72351D01*
X171030Y72351D01*
X173578Y71295D01*
X173581Y71294D01*
X173583Y71293D01*
X173847Y71205D01*
X174119Y71115D01*
X174121Y71114D01*
X174124Y71113D01*
X174402Y71062D01*
X174679Y71011D01*
X174681Y71011D01*
X174684Y71011D01*
X174973Y70999D01*
X175248Y70987D01*
X175251Y70988D01*
G37*
%LPC*%
G36*
X237206Y79017D02*
X237206Y79017D01*
X231417Y84806D01*
X231417Y92994D01*
X237151Y98727D01*
X237302Y98901D01*
X237457Y99070D01*
X237488Y99116D01*
X237524Y99157D01*
X237649Y99350D01*
X237780Y99540D01*
X237804Y99589D01*
X237834Y99635D01*
X237931Y99844D01*
X238033Y100050D01*
X238051Y100102D01*
X238074Y100152D01*
X238141Y100373D01*
X238213Y100591D01*
X238223Y100645D01*
X238239Y100697D01*
X238274Y100925D01*
X238316Y101151D01*
X238318Y101206D01*
X238326Y101260D01*
X238330Y101490D01*
X238339Y101721D01*
X238333Y101775D01*
X238334Y101830D01*
X238305Y102059D01*
X238282Y102288D01*
X238269Y102341D01*
X238262Y102395D01*
X238201Y102618D01*
X238147Y102841D01*
X238126Y102892D01*
X238112Y102945D01*
X238020Y103156D01*
X237935Y103370D01*
X237908Y103418D01*
X237886Y103468D01*
X237766Y103665D01*
X237651Y103864D01*
X237623Y103898D01*
X237589Y103954D01*
X237227Y104395D01*
X237179Y104439D01*
X237151Y104473D01*
X231417Y110206D01*
X231417Y118394D01*
X237206Y124183D01*
X245394Y124183D01*
X251183Y118394D01*
X251183Y110206D01*
X245449Y104473D01*
X245298Y104299D01*
X245143Y104130D01*
X245112Y104084D01*
X245076Y104043D01*
X244950Y103850D01*
X244820Y103660D01*
X244796Y103611D01*
X244766Y103565D01*
X244669Y103356D01*
X244567Y103150D01*
X244549Y103098D01*
X244526Y103048D01*
X244459Y102828D01*
X244387Y102609D01*
X244377Y102555D01*
X244361Y102503D01*
X244326Y102276D01*
X244284Y102049D01*
X244282Y101994D01*
X244274Y101940D01*
X244270Y101710D01*
X244261Y101479D01*
X244267Y101425D01*
X244266Y101370D01*
X244295Y101142D01*
X244318Y100913D01*
X244331Y100859D01*
X244338Y100805D01*
X244399Y100582D01*
X244453Y100359D01*
X244474Y100308D01*
X244488Y100255D01*
X244580Y100044D01*
X244665Y99830D01*
X244692Y99782D01*
X244714Y99732D01*
X244834Y99535D01*
X244949Y99336D01*
X244977Y99302D01*
X245011Y99246D01*
X245373Y98805D01*
X245421Y98761D01*
X245449Y98727D01*
X251183Y92994D01*
X251183Y84806D01*
X245394Y79017D01*
X237206Y79017D01*
G37*
%LPD*%
G36*
X131148Y113021D02*
X131148Y113021D01*
X131318Y113019D01*
X131432Y113034D01*
X131548Y113039D01*
X131715Y113070D01*
X131883Y113091D01*
X131995Y113122D01*
X132108Y113143D01*
X132269Y113197D01*
X132433Y113242D01*
X132539Y113287D01*
X132648Y113324D01*
X132800Y113400D01*
X132956Y113467D01*
X133054Y113527D01*
X133157Y113579D01*
X133297Y113676D01*
X133442Y113764D01*
X133531Y113837D01*
X133626Y113903D01*
X133751Y114018D01*
X133883Y114126D01*
X133960Y114211D01*
X134045Y114289D01*
X134153Y114421D01*
X134268Y114546D01*
X134333Y114641D01*
X134406Y114730D01*
X134494Y114876D01*
X134590Y115016D01*
X134642Y115119D01*
X134701Y115217D01*
X134768Y115373D01*
X134844Y115526D01*
X134880Y115635D01*
X134926Y115741D01*
X134970Y115905D01*
X135024Y116067D01*
X135045Y116180D01*
X135075Y116291D01*
X135086Y116406D01*
X135126Y116627D01*
X135140Y116959D01*
X135151Y117076D01*
X135151Y119196D01*
X135147Y119256D01*
X135149Y119316D01*
X135127Y119540D01*
X135111Y119764D01*
X135099Y119824D01*
X135093Y119883D01*
X135039Y120102D01*
X134992Y120322D01*
X134972Y120378D01*
X134957Y120437D01*
X134874Y120645D01*
X134796Y120857D01*
X134768Y120910D01*
X134746Y120966D01*
X134634Y121161D01*
X134528Y121359D01*
X134492Y121408D01*
X134462Y121460D01*
X134387Y121551D01*
X134191Y121819D01*
X134034Y121980D01*
X133961Y122069D01*
X125006Y131024D01*
X125004Y131026D01*
X125002Y131028D01*
X124800Y131203D01*
X124576Y131398D01*
X124574Y131399D01*
X124572Y131401D01*
X124336Y131553D01*
X124098Y131708D01*
X124095Y131709D01*
X124093Y131710D01*
X123840Y131827D01*
X123581Y131947D01*
X123578Y131948D01*
X123576Y131949D01*
X123309Y132030D01*
X123036Y132113D01*
X123033Y132113D01*
X123030Y132114D01*
X122745Y132158D01*
X122473Y132200D01*
X122470Y132200D01*
X122467Y132200D01*
X122179Y132204D01*
X121903Y132208D01*
X121900Y132207D01*
X121897Y132207D01*
X121625Y132172D01*
X121338Y132136D01*
X121335Y132135D01*
X121332Y132134D01*
X121320Y132131D01*
X120788Y131985D01*
X120660Y131930D01*
X120578Y131905D01*
X118030Y130849D01*
X110570Y130849D01*
X103679Y133704D01*
X101147Y136235D01*
X101060Y136311D01*
X100980Y136393D01*
X100845Y136498D01*
X100717Y136609D01*
X100620Y136672D01*
X100529Y136742D01*
X100382Y136826D01*
X100239Y136919D01*
X100134Y136967D01*
X100034Y137024D01*
X99876Y137087D01*
X99722Y137159D01*
X99612Y137192D01*
X99505Y137235D01*
X99339Y137275D01*
X99177Y137324D01*
X99063Y137342D01*
X98951Y137369D01*
X98781Y137385D01*
X98614Y137411D01*
X98499Y137413D01*
X98384Y137424D01*
X98214Y137417D01*
X98044Y137419D01*
X97930Y137404D01*
X97814Y137399D01*
X97647Y137368D01*
X97479Y137347D01*
X97367Y137316D01*
X97254Y137295D01*
X97093Y137241D01*
X96929Y137196D01*
X96823Y137151D01*
X96714Y137114D01*
X96562Y137038D01*
X96406Y136971D01*
X96308Y136911D01*
X96205Y136859D01*
X96065Y136762D01*
X95920Y136674D01*
X95831Y136601D01*
X95736Y136535D01*
X95611Y136420D01*
X95479Y136312D01*
X95402Y136227D01*
X95317Y136149D01*
X95209Y136017D01*
X95094Y135892D01*
X95029Y135797D01*
X94956Y135708D01*
X94868Y135562D01*
X94772Y135422D01*
X94720Y135319D01*
X94661Y135221D01*
X94594Y135065D01*
X94518Y134912D01*
X94482Y134803D01*
X94436Y134697D01*
X94392Y134533D01*
X94338Y134371D01*
X94317Y134258D01*
X94287Y134147D01*
X94276Y134032D01*
X94236Y133811D01*
X94222Y133479D01*
X94211Y133362D01*
X94211Y129464D01*
X94215Y129404D01*
X94213Y129344D01*
X94235Y129120D01*
X94251Y128896D01*
X94263Y128836D01*
X94269Y128777D01*
X94323Y128558D01*
X94370Y128338D01*
X94390Y128282D01*
X94405Y128223D01*
X94488Y128014D01*
X94566Y127803D01*
X94594Y127750D01*
X94616Y127694D01*
X94728Y127499D01*
X94834Y127301D01*
X94870Y127252D01*
X94900Y127200D01*
X94975Y127109D01*
X95171Y126841D01*
X95328Y126680D01*
X95401Y126591D01*
X102337Y119655D01*
X102339Y119653D01*
X102340Y119651D01*
X102558Y119462D01*
X102767Y119282D01*
X102769Y119280D01*
X102771Y119278D01*
X103009Y119125D01*
X103245Y118972D01*
X103247Y118971D01*
X103250Y118969D01*
X103502Y118852D01*
X103762Y118732D01*
X103764Y118731D01*
X103767Y118730D01*
X104041Y118647D01*
X104307Y118567D01*
X104310Y118566D01*
X104312Y118565D01*
X104601Y118521D01*
X104870Y118479D01*
X104873Y118479D01*
X104876Y118479D01*
X105164Y118475D01*
X105440Y118472D01*
X105443Y118472D01*
X105445Y118472D01*
X105717Y118507D01*
X106005Y118544D01*
X106008Y118544D01*
X106010Y118545D01*
X106022Y118548D01*
X106555Y118694D01*
X106683Y118750D01*
X106765Y118774D01*
X110570Y120351D01*
X118030Y120351D01*
X124921Y117496D01*
X128215Y114203D01*
X128302Y114127D01*
X128382Y114045D01*
X128517Y113940D01*
X128645Y113829D01*
X128742Y113766D01*
X128833Y113696D01*
X128980Y113612D01*
X129123Y113519D01*
X129228Y113471D01*
X129328Y113414D01*
X129486Y113351D01*
X129640Y113279D01*
X129750Y113246D01*
X129857Y113203D01*
X130023Y113163D01*
X130185Y113114D01*
X130299Y113096D01*
X130411Y113069D01*
X130581Y113053D01*
X130748Y113027D01*
X130863Y113025D01*
X130978Y113014D01*
X131148Y113021D01*
G37*
D10*
X241300Y114300D03*
X241300Y88900D03*
D11*
X25400Y228600D03*
X50800Y228600D03*
X76200Y228600D03*
X101600Y228600D03*
X127000Y228600D03*
X152400Y228600D03*
X177800Y228600D03*
X203200Y228600D03*
X228600Y228600D03*
X254000Y228600D03*
D12*
X167300Y53600D03*
X114300Y53600D03*
X61300Y53600D03*
X167300Y101600D03*
X114300Y101600D03*
X61300Y101600D03*
X167300Y149600D03*
X114300Y149600D03*
X61300Y149600D03*
D13*
X228600Y162900D02*
X228600Y228600D01*
X140716Y80184D02*
X167300Y53600D01*
X140716Y123184D02*
X114300Y149600D01*
X140716Y123184D02*
X140716Y80184D01*
X167300Y53600D02*
X211582Y97882D01*
X211582Y145882D02*
X228600Y162900D01*
X211582Y145882D02*
X211582Y97882D01*
X41220Y212780D02*
X25400Y228600D01*
X41220Y212780D02*
X41220Y201431D01*
X52405Y190246D01*
X88646Y176530D02*
X88646Y125476D01*
X74930Y190246D02*
X52405Y190246D01*
X74930Y190246D02*
X88646Y176530D01*
X88646Y125476D02*
X112522Y101600D01*
X114300Y101600D01*
X165862Y189738D02*
X127000Y228600D01*
X165862Y189738D02*
X170942Y189738D01*
D14*
X170942Y189738D03*
X10160Y150876D03*
X12446Y183134D03*
X15494Y200152D03*
X13970Y110744D03*
X18034Y26924D03*
X53848Y16256D03*
X20574Y47752D03*
X247396Y44958D03*
X257302Y102870D03*
X267970Y135128D03*
X240030Y141986D03*
X260858Y197612D03*
X242316Y189992D03*
X267970Y185166D03*
X222504Y28448D03*
X239268Y20574D03*
X264922Y13462D03*
X268986Y71374D03*
X224028Y67310D03*
X219710Y48006D03*
X76454Y10414D03*
X11684Y11938D03*
X10668Y243586D03*
X8636Y223012D03*
X39370Y241300D03*
X68834Y248158D03*
X89408Y239776D03*
X118364Y246380D03*
X140208Y241300D03*
X165100Y246888D03*
X187706Y242316D03*
X200914Y245872D03*
X225298Y246126D03*
X215138Y241046D03*
X241808Y241554D03*
X264414Y246126D03*
X270256Y215646D03*
X260350Y209804D03*
X251460Y245618D03*
X211582Y188976D03*
X12192Y81280D03*
X164846Y11176D03*
X112268Y10668D03*
X138938Y9906D03*
X227076Y12446D03*
X235966Y55118D03*
X254000Y71374D03*
X269748Y115824D03*
X265938Y86360D03*
X269240Y158496D03*
X214376Y213360D03*
X100076Y246380D03*
X62484Y240792D03*
X222504Y89408D03*
X25400Y179324D03*
X40894Y176530D03*
X30226Y157734D03*
X26162Y133350D03*
X31242Y115316D03*
X47498Y124206D03*
X35560Y88138D03*
X30988Y98552D03*
X33020Y62230D03*
X33782Y38100D03*
X79756Y27940D03*
X82042Y78740D03*
X86868Y106934D03*
X76708Y124460D03*
X106172Y127000D03*
X122174Y124714D03*
X102108Y173736D03*
X127254Y173228D03*
X139700Y155448D03*
X154686Y125476D03*
X176530Y126238D03*
X161036Y77216D03*
X200406Y109220D03*
X190754Y93726D03*
X204470Y60960D03*
X130048Y77216D03*
X100076Y78486D03*
X88392Y38608D03*
X64770Y26670D03*
X115062Y27178D03*
X49022Y78232D03*
X57658Y176784D03*
X198882Y25654D03*
X159512Y26162D03*
X141732Y27178D03*
X140208Y55626D03*
X182626Y28702D03*
X198120Y41910D03*
X240538Y34798D03*
X202692Y209804D03*
X56642Y203962D03*
X27940Y205740D03*
X31242Y189738D03*
X141224Y167640D03*
X89154Y67056D03*
X81026Y211328D03*
X105156Y212090D03*
X64262Y199390D03*
X154432Y186690D03*
X189230Y141478D03*
X219202Y185166D03*
X115570Y176022D03*
X13208Y168656D03*
X187706Y177800D03*
D13*
X115062Y189738D02*
X76200Y228600D01*
X115062Y189738D02*
X135890Y189738D01*
X167300Y158328D01*
X167300Y149600D01*
X177800Y202692D02*
X177800Y228600D01*
X199390Y181102D02*
X199390Y131572D01*
X169418Y101600D01*
X167300Y101600D01*
X199390Y181102D02*
X177800Y202692D01*
M02*
