M48
;GenerationSoftware,Autodesk,EAGLE,9.6.2*%
;CreationDate,2023-11-05T14:30:29Z*%
FMAT,2
ICI,OFF
METRIC,TZ,000.000
T4C0.350
T3C0.813
T2C1.016
T1C2.300
%
G90
M71
T1
X6130Y14960
X16730Y5360
X11430Y5360
X6130Y5360
X16730Y10160
X11430Y10160
X6130Y10160
X16730Y14960
X11430Y14960
T2
X7620Y22860
X2540Y22860
X5080Y22860
X10160Y22860
X12700Y22860
X15240Y22860
X17780Y22860
X20320Y22860
X22860Y22860
X25400Y22860
T3
X24130Y11430
X24130Y8890
T4
X7645Y1041
X1168Y1194
X1067Y24359
X864Y22301
X3937Y24130
X6883Y24816
X8941Y23978
X11836Y24638
X14021Y24130
X16510Y24689
X18771Y24232
X20091Y24587
X22530Y24613
X21514Y24105
X24181Y24155
X26441Y24613
X27026Y21565
X26035Y20980
X25146Y24562
X21158Y18898
X1219Y8128
X16485Y1118
X11227Y1067
X13894Y991
X22708Y1245
X23597Y5512
X25400Y7137
X26975Y11582
X26594Y8636
X26924Y15850
X21438Y21336
X10008Y24638
X6248Y24079
X22250Y8941
X2540Y17932
X4089Y17653
X3023Y15773
X2616Y13335
X3124Y11532
X4750Y12421
X3556Y8814
X3099Y9855
X3302Y6223
X3378Y3810
X23927Y2057
X8204Y7874
X8687Y10693
X7671Y12446
X10617Y12700
X12217Y12471
X10211Y17374
X12725Y17323
X13970Y15545
X15469Y12548
X17653Y12624
X16104Y7722
X20041Y10922
X19075Y9373
X20447Y6096
X13005Y7722
X10008Y7849
X8839Y3861
X6477Y2667
X11506Y2718
X4902Y7823
X5766Y17678
X19888Y2565
X15951Y2616
X14173Y2718
X14021Y5563
X18263Y2870
X19812Y4191
X24054Y3480
X20269Y20980
X5664Y20396
X2794Y20574
X17094Y18974
X14122Y16764
X8915Y6706
X8103Y21133
X10516Y21209
X6426Y19939
X15443Y18669
X18923Y14148
X21920Y18517
X11557Y17602
X1321Y16866
X18771Y17780
X1016Y15088
X1245Y18313
X1549Y20015
X1397Y11074
X7976Y2794
X1803Y2692
X5385Y1626
X2057Y4775
X24740Y4496
X25730Y10287
X26797Y13513
X24003Y14199
X26086Y19761
X24232Y18999
X26797Y18517
X22250Y2845
X26492Y1346
X26899Y7137
X22403Y6731
X21971Y4801
X3124Y18974
M30