G04 EAGLE Gerber RS-274X export*
G75*
%MOMM*%
%FSLAX34Y34*%
%LPD*%
%IN*%
%IPPOS*%
%AMOC8*
5,1,8,0,0,1.08239X$1,22.5*%
G01*
%ADD10C,0.254000*%


D10*
X0Y15240D02*
X58Y13912D01*
X232Y12594D01*
X519Y11296D01*
X919Y10028D01*
X1428Y8799D01*
X2042Y7620D01*
X2756Y6499D01*
X3565Y5444D01*
X4464Y4464D01*
X5444Y3566D01*
X6499Y2756D01*
X7620Y2042D01*
X8799Y1428D01*
X10028Y919D01*
X11296Y519D01*
X12594Y232D01*
X13912Y58D01*
X15240Y0D01*
X260860Y0D01*
X262188Y58D01*
X263506Y232D01*
X264804Y519D01*
X266072Y919D01*
X267301Y1428D01*
X268480Y2042D01*
X269601Y2756D01*
X270656Y3565D01*
X271636Y4464D01*
X272535Y5444D01*
X273344Y6499D01*
X274058Y7620D01*
X274672Y8799D01*
X275181Y10028D01*
X275581Y11296D01*
X275868Y12594D01*
X276042Y13912D01*
X276100Y15240D01*
X276100Y238660D01*
X276042Y239988D01*
X275868Y241306D01*
X275581Y242604D01*
X275181Y243872D01*
X274672Y245101D01*
X274058Y246280D01*
X273344Y247401D01*
X272535Y248456D01*
X271636Y249436D01*
X270656Y250335D01*
X269601Y251144D01*
X268480Y251858D01*
X267301Y252472D01*
X266072Y252981D01*
X264804Y253381D01*
X263506Y253668D01*
X262188Y253842D01*
X260860Y253900D01*
X15240Y253900D01*
X13912Y253842D01*
X12594Y253668D01*
X11296Y253381D01*
X10028Y252981D01*
X8799Y252472D01*
X7620Y251858D01*
X6499Y251144D01*
X5444Y250335D01*
X4464Y249436D01*
X3565Y248456D01*
X2756Y247401D01*
X2042Y246280D01*
X1428Y245101D01*
X919Y243872D01*
X519Y242604D01*
X232Y241306D01*
X58Y239988D01*
X0Y238660D01*
X0Y15240D01*
M02*
