M48
;GenerationSoftware,Autodesk,EAGLE,9.6.2*%
;CreationDate,2023-10-24T16:40:53Z*%
FMAT,2
ICI,OFF
METRIC,TZ,000.000
T4C0.350
T3C0.813
T2C1.016
T1C2.300
%
G90
M71
T1
X11430Y10160
X6130Y14960
X11430Y14960
X16730Y14960
X6130Y10160
X16730Y10160
X6130Y5360
X11430Y5360
X16730Y5360
T2
X25400Y22860
X2540Y22860
X5080Y22860
X7620Y22860
X10160Y22860
X12700Y22860
X15240Y22860
X17780Y22860
X20320Y22860
X22860Y22860
T3
X24130Y11430
X24130Y8890
T4
X26797Y13513
X24003Y14199
X26086Y19761
X24232Y18999
X26797Y18517
X22250Y2845
X23927Y2057
X26492Y1346
X26899Y7137
X22403Y6731
X21971Y4801
X7645Y1041
X1168Y1194
X1067Y24359
X864Y22301
X3937Y24130
X6883Y24816
X8941Y23978
X11836Y24638
X14021Y24130
X16510Y24689
X18771Y24232
X20091Y24587
X22530Y24613
X21514Y24105
X24181Y24155
X26441Y24613
X27026Y21565
X26035Y20980
X25146Y24562
X19609Y18364
X21158Y18898
X15215Y12497
X12852Y12548
X10820Y12598
X10465Y17221
X10058Y18593
X8839Y4978
X3480Y15189
X3302Y11328
X1219Y8128
X3404Y3480
X7010Y7696
X13868Y3785
X13970Y6299
X15088Y3327
X17475Y7671
X15773Y7874
X9677Y3404
X20193Y2083
X16485Y1118
X11227Y1067
X13894Y991
X6299Y2642
X22708Y1245
X23597Y5512
X25400Y7137
X20574Y9906
X21184Y11836
X20904Y8280
X26975Y11582
X26594Y8636
X26924Y15850
X21438Y21336
X19990Y21057
X6172Y20244
X10008Y24638
X16650Y18910
X19177Y10414
X18898Y6274
X22250Y8941
X13868Y18415
X15113Y18720
X10744Y21057
X15418Y17704
X2896Y17475
X5131Y17526
X2540Y15773
X1016Y15088
X1245Y18313
X1549Y20015
X3531Y18491
X4978Y20498
X8814Y10414
X3505Y7315
X1397Y11074
X1803Y2692
X5385Y1626
X2057Y4775
X8382Y8788
X7645Y12624
X7645Y17424
X9195Y6579
X24740Y4496
X25730Y10287
X6248Y24079
M30