G04 EAGLE Gerber RS-274X export*
G75*
%MOMM*%
%FSLAX34Y34*%
%LPD*%
%INBottom Copper*%
%IPPOS*%
%AMOC8*
5,1,8,0,0,1.08239X$1,22.5*%
G01*
%ADD10C,1.676400*%
%ADD11P,1.623585X8X112.500000*%
%ADD12R,1.950000X1.950000*%
%ADD13C,1.950000*%
%ADD14C,0.959600*%
%ADD15C,3.810000*%
%ADD16C,1.524000*%
%ADD17C,1.270000*%
%ADD18C,1.016000*%
%ADD19C,0.600000*%

G36*
X520022Y2504D02*
X520022Y2504D01*
X520060Y2503D01*
X524242Y2832D01*
X524248Y2834D01*
X524254Y2833D01*
X524418Y2867D01*
X532374Y5452D01*
X532406Y5469D01*
X532441Y5477D01*
X532586Y5560D01*
X539354Y10477D01*
X539379Y10503D01*
X539410Y10522D01*
X539523Y10646D01*
X544440Y17414D01*
X544456Y17446D01*
X544479Y17473D01*
X544548Y17626D01*
X547133Y25582D01*
X547134Y25588D01*
X547136Y25593D01*
X547168Y25758D01*
X547497Y29940D01*
X547495Y29962D01*
X547499Y30000D01*
X547499Y420000D01*
X547496Y420022D01*
X547497Y420060D01*
X547168Y424242D01*
X547166Y424248D01*
X547167Y424254D01*
X547133Y424418D01*
X544548Y432374D01*
X544531Y432406D01*
X544523Y432441D01*
X544440Y432586D01*
X539523Y439354D01*
X539497Y439379D01*
X539478Y439410D01*
X539354Y439523D01*
X532586Y444440D01*
X532554Y444456D01*
X532527Y444479D01*
X532374Y444548D01*
X524418Y447133D01*
X524412Y447134D01*
X524407Y447136D01*
X524242Y447168D01*
X520060Y447497D01*
X520038Y447495D01*
X520000Y447499D01*
X30000Y447499D01*
X29978Y447496D01*
X29940Y447497D01*
X25758Y447168D01*
X25752Y447166D01*
X25746Y447167D01*
X25582Y447133D01*
X17626Y444548D01*
X17594Y444531D01*
X17559Y444523D01*
X17414Y444440D01*
X10646Y439523D01*
X10621Y439497D01*
X10590Y439478D01*
X10477Y439354D01*
X5560Y432586D01*
X5544Y432554D01*
X5521Y432527D01*
X5452Y432374D01*
X2867Y424418D01*
X2866Y424412D01*
X2864Y424407D01*
X2832Y424242D01*
X2503Y420060D01*
X2505Y420038D01*
X2501Y420000D01*
X2501Y30000D01*
X2504Y29978D01*
X2503Y29940D01*
X2832Y25758D01*
X2834Y25752D01*
X2833Y25746D01*
X2867Y25582D01*
X5452Y17626D01*
X5469Y17594D01*
X5477Y17559D01*
X5560Y17414D01*
X10477Y10646D01*
X10503Y10621D01*
X10522Y10590D01*
X10646Y10477D01*
X17414Y5560D01*
X17446Y5544D01*
X17473Y5521D01*
X17626Y5452D01*
X25582Y2867D01*
X25588Y2866D01*
X25593Y2864D01*
X25758Y2832D01*
X29940Y2503D01*
X29962Y2505D01*
X30000Y2501D01*
X520000Y2501D01*
X520022Y2504D01*
G37*
%LPC*%
G36*
X128747Y198301D02*
X128747Y198301D01*
X126432Y199260D01*
X124660Y201032D01*
X123701Y203347D01*
X123701Y205853D01*
X124660Y208168D01*
X126432Y209940D01*
X127289Y210295D01*
X127372Y210346D01*
X127458Y210392D01*
X127476Y210411D01*
X127498Y210424D01*
X127560Y210499D01*
X127627Y210570D01*
X127638Y210594D01*
X127655Y210614D01*
X127690Y210705D01*
X127731Y210793D01*
X127734Y210819D01*
X127743Y210843D01*
X127747Y210941D01*
X127758Y211037D01*
X127752Y211063D01*
X127753Y211089D01*
X127726Y211183D01*
X127706Y211278D01*
X127692Y211300D01*
X127685Y211325D01*
X127629Y211405D01*
X127579Y211489D01*
X127560Y211506D01*
X127545Y211527D01*
X127467Y211585D01*
X127392Y211649D01*
X127368Y211659D01*
X127347Y211674D01*
X127255Y211704D01*
X127164Y211741D01*
X127132Y211744D01*
X127113Y211750D01*
X127080Y211750D01*
X126998Y211759D01*
X115351Y211759D01*
X112932Y212761D01*
X110974Y214719D01*
X94421Y231272D01*
X93419Y233691D01*
X93419Y236309D01*
X94421Y238728D01*
X96272Y240579D01*
X98691Y241581D01*
X101309Y241581D01*
X103728Y240579D01*
X119163Y225144D01*
X119237Y225091D01*
X119306Y225031D01*
X119336Y225019D01*
X119363Y225000D01*
X119450Y224973D01*
X119534Y224939D01*
X119575Y224935D01*
X119598Y224928D01*
X119630Y224929D01*
X119701Y224921D01*
X123935Y224921D01*
X124006Y224932D01*
X124077Y224934D01*
X124126Y224952D01*
X124178Y224960D01*
X124241Y224994D01*
X124308Y225019D01*
X124349Y225051D01*
X124395Y225076D01*
X124444Y225128D01*
X124500Y225172D01*
X124529Y225216D01*
X124564Y225254D01*
X124595Y225319D01*
X124633Y225379D01*
X124646Y225430D01*
X124668Y225477D01*
X124676Y225548D01*
X124693Y225618D01*
X124689Y225670D01*
X124695Y225721D01*
X124680Y225792D01*
X124674Y225863D01*
X124654Y225911D01*
X124643Y225962D01*
X124606Y226023D01*
X124578Y226089D01*
X124533Y226145D01*
X124517Y226173D01*
X124499Y226188D01*
X124473Y226220D01*
X124421Y226272D01*
X123419Y228691D01*
X123419Y231309D01*
X124421Y233728D01*
X126272Y235579D01*
X128691Y236581D01*
X196959Y236581D01*
X197049Y236595D01*
X197140Y236603D01*
X197170Y236615D01*
X197202Y236620D01*
X197282Y236663D01*
X197366Y236699D01*
X197398Y236725D01*
X197419Y236736D01*
X197441Y236759D01*
X197497Y236804D01*
X210496Y249803D01*
X210549Y249877D01*
X210609Y249946D01*
X210621Y249976D01*
X210640Y250003D01*
X210667Y250090D01*
X210701Y250174D01*
X210705Y250215D01*
X210712Y250238D01*
X210711Y250270D01*
X210719Y250341D01*
X210719Y253321D01*
X210709Y253386D01*
X210708Y253451D01*
X210685Y253531D01*
X210680Y253564D01*
X210670Y253581D01*
X210661Y253612D01*
X209449Y256538D01*
X209449Y259662D01*
X210644Y262547D01*
X211247Y263150D01*
X211289Y263208D01*
X211338Y263260D01*
X211360Y263307D01*
X211391Y263349D01*
X211412Y263418D01*
X211442Y263483D01*
X211448Y263535D01*
X211463Y263585D01*
X211461Y263656D01*
X211469Y263727D01*
X211458Y263778D01*
X211457Y263830D01*
X211432Y263898D01*
X211417Y263968D01*
X211390Y264013D01*
X211372Y264061D01*
X211327Y264117D01*
X211291Y264179D01*
X211251Y264213D01*
X211219Y264253D01*
X211158Y264292D01*
X211104Y264339D01*
X211055Y264358D01*
X211012Y264386D01*
X210942Y264404D01*
X210876Y264431D01*
X210804Y264439D01*
X210773Y264447D01*
X210750Y264445D01*
X210709Y264449D01*
X204071Y264449D01*
X203981Y264435D01*
X203890Y264427D01*
X203860Y264415D01*
X203828Y264410D01*
X203748Y264367D01*
X203664Y264331D01*
X203632Y264305D01*
X203611Y264294D01*
X203589Y264271D01*
X203533Y264226D01*
X199881Y260575D01*
X199813Y260480D01*
X199743Y260386D01*
X199741Y260380D01*
X199738Y260375D01*
X199703Y260264D01*
X199667Y260152D01*
X199667Y260146D01*
X199665Y260140D01*
X199668Y260023D01*
X199669Y259906D01*
X199672Y259899D01*
X199672Y259894D01*
X199678Y259877D01*
X199716Y259745D01*
X199751Y259662D01*
X199751Y256538D01*
X198556Y253653D01*
X196347Y251444D01*
X193462Y250249D01*
X190338Y250249D01*
X187453Y251444D01*
X185244Y253653D01*
X184049Y256538D01*
X184049Y259662D01*
X185261Y262588D01*
X185270Y262626D01*
X185278Y262643D01*
X185280Y262662D01*
X185301Y262712D01*
X185310Y262795D01*
X185317Y262827D01*
X185316Y262847D01*
X185319Y262879D01*
X185319Y263209D01*
X186321Y265628D01*
X197302Y276609D01*
X199721Y277611D01*
X320279Y277611D01*
X322698Y276609D01*
X331362Y267945D01*
X331378Y267933D01*
X331390Y267918D01*
X331478Y267862D01*
X331561Y267801D01*
X331580Y267795D01*
X331597Y267785D01*
X331698Y267759D01*
X331797Y267729D01*
X331816Y267729D01*
X331836Y267725D01*
X331939Y267733D01*
X332042Y267735D01*
X332061Y267742D01*
X332081Y267744D01*
X332176Y267784D01*
X332273Y267820D01*
X332289Y267832D01*
X332307Y267840D01*
X332438Y267945D01*
X373196Y308703D01*
X373249Y308777D01*
X373309Y308846D01*
X373321Y308876D01*
X373340Y308903D01*
X373367Y308990D01*
X373401Y309074D01*
X373405Y309115D01*
X373412Y309138D01*
X373411Y309170D01*
X373419Y309241D01*
X373419Y341309D01*
X374421Y343728D01*
X396272Y365579D01*
X398691Y366581D01*
X440359Y366581D01*
X442778Y365579D01*
X444736Y363621D01*
X446433Y361924D01*
X446507Y361871D01*
X446576Y361811D01*
X446606Y361799D01*
X446633Y361780D01*
X446720Y361753D01*
X446804Y361719D01*
X446845Y361715D01*
X446868Y361708D01*
X446900Y361709D01*
X446971Y361701D01*
X450078Y361701D01*
X455351Y356428D01*
X455351Y348972D01*
X450078Y343699D01*
X442622Y343699D01*
X437349Y348972D01*
X437349Y352079D01*
X437335Y352169D01*
X437327Y352260D01*
X437315Y352290D01*
X437310Y352322D01*
X437267Y352402D01*
X437231Y352486D01*
X437205Y352518D01*
X437194Y352539D01*
X437171Y352561D01*
X437126Y352617D01*
X436547Y353196D01*
X436473Y353249D01*
X436404Y353309D01*
X436374Y353321D01*
X436347Y353340D01*
X436260Y353367D01*
X436176Y353401D01*
X436135Y353405D01*
X436112Y353412D01*
X436080Y353411D01*
X436009Y353419D01*
X403041Y353419D01*
X402951Y353405D01*
X402860Y353397D01*
X402830Y353385D01*
X402798Y353380D01*
X402718Y353337D01*
X402634Y353301D01*
X402602Y353275D01*
X402581Y353264D01*
X402559Y353241D01*
X402503Y353196D01*
X386804Y337497D01*
X386751Y337423D01*
X386691Y337354D01*
X386679Y337324D01*
X386660Y337297D01*
X386633Y337210D01*
X386599Y337126D01*
X386595Y337085D01*
X386588Y337062D01*
X386589Y337030D01*
X386581Y336959D01*
X386581Y304891D01*
X385579Y302472D01*
X383621Y300514D01*
X339933Y256826D01*
X339894Y256773D01*
X339848Y256726D01*
X339808Y256653D01*
X339789Y256626D01*
X339783Y256608D01*
X339768Y256579D01*
X338556Y253653D01*
X336347Y251444D01*
X333462Y250249D01*
X330338Y250249D01*
X327453Y251444D01*
X325244Y253653D01*
X324032Y256579D01*
X323998Y256635D01*
X323972Y256695D01*
X323920Y256760D01*
X323903Y256788D01*
X323888Y256801D01*
X323867Y256826D01*
X316467Y264226D01*
X316393Y264279D01*
X316324Y264339D01*
X316294Y264351D01*
X316267Y264370D01*
X316180Y264397D01*
X316096Y264431D01*
X316055Y264435D01*
X316032Y264442D01*
X316000Y264441D01*
X315929Y264449D01*
X249291Y264449D01*
X249220Y264438D01*
X249149Y264436D01*
X249100Y264418D01*
X249048Y264410D01*
X248985Y264376D01*
X248918Y264351D01*
X248877Y264319D01*
X248831Y264294D01*
X248782Y264242D01*
X248726Y264198D01*
X248698Y264154D01*
X248662Y264116D01*
X248631Y264051D01*
X248593Y263991D01*
X248580Y263940D01*
X248558Y263893D01*
X248550Y263822D01*
X248533Y263752D01*
X248537Y263700D01*
X248531Y263649D01*
X248546Y263578D01*
X248552Y263507D01*
X248572Y263459D01*
X248583Y263408D01*
X248620Y263347D01*
X248648Y263281D01*
X248693Y263225D01*
X248709Y263197D01*
X248727Y263182D01*
X248753Y263150D01*
X249356Y262547D01*
X250551Y259662D01*
X250551Y256538D01*
X249356Y253653D01*
X247147Y251444D01*
X244262Y250249D01*
X241138Y250249D01*
X238253Y251444D01*
X236044Y253653D01*
X234849Y256538D01*
X234849Y259662D01*
X236044Y262547D01*
X236647Y263150D01*
X236689Y263208D01*
X236738Y263260D01*
X236760Y263307D01*
X236791Y263349D01*
X236812Y263418D01*
X236842Y263483D01*
X236848Y263535D01*
X236863Y263585D01*
X236861Y263656D01*
X236869Y263727D01*
X236858Y263778D01*
X236857Y263830D01*
X236832Y263898D01*
X236817Y263968D01*
X236790Y264013D01*
X236772Y264061D01*
X236727Y264117D01*
X236691Y264179D01*
X236651Y264213D01*
X236619Y264253D01*
X236558Y264292D01*
X236504Y264339D01*
X236455Y264358D01*
X236412Y264386D01*
X236342Y264404D01*
X236276Y264431D01*
X236204Y264439D01*
X236173Y264447D01*
X236150Y264445D01*
X236109Y264449D01*
X223891Y264449D01*
X223820Y264438D01*
X223749Y264436D01*
X223700Y264418D01*
X223648Y264410D01*
X223585Y264376D01*
X223518Y264351D01*
X223477Y264319D01*
X223431Y264294D01*
X223382Y264242D01*
X223326Y264198D01*
X223298Y264154D01*
X223262Y264116D01*
X223231Y264051D01*
X223193Y263991D01*
X223180Y263940D01*
X223158Y263893D01*
X223150Y263822D01*
X223133Y263752D01*
X223137Y263700D01*
X223131Y263649D01*
X223146Y263578D01*
X223152Y263507D01*
X223172Y263459D01*
X223183Y263408D01*
X223220Y263347D01*
X223248Y263281D01*
X223293Y263225D01*
X223309Y263197D01*
X223327Y263182D01*
X223353Y263150D01*
X223956Y262547D01*
X225151Y259662D01*
X225151Y256538D01*
X223939Y253612D01*
X223924Y253548D01*
X223899Y253488D01*
X223890Y253405D01*
X223883Y253373D01*
X223884Y253353D01*
X223881Y253321D01*
X223881Y245991D01*
X222879Y243572D01*
X220921Y241614D01*
X205527Y226220D01*
X205485Y226162D01*
X205436Y226110D01*
X205414Y226063D01*
X205383Y226021D01*
X205362Y225952D01*
X205332Y225887D01*
X205326Y225835D01*
X205311Y225785D01*
X205313Y225714D01*
X205305Y225643D01*
X205316Y225592D01*
X205317Y225540D01*
X205342Y225472D01*
X205357Y225402D01*
X205384Y225357D01*
X205402Y225309D01*
X205447Y225253D01*
X205483Y225191D01*
X205523Y225157D01*
X205555Y225117D01*
X205616Y225078D01*
X205670Y225031D01*
X205719Y225012D01*
X205762Y224984D01*
X205832Y224966D01*
X205898Y224939D01*
X205970Y224931D01*
X206001Y224923D01*
X206024Y224925D01*
X206065Y224921D01*
X339899Y224921D01*
X339989Y224935D01*
X340080Y224943D01*
X340110Y224955D01*
X340142Y224960D01*
X340222Y225003D01*
X340306Y225039D01*
X340338Y225065D01*
X340359Y225076D01*
X340381Y225099D01*
X340437Y225144D01*
X374667Y259374D01*
X374706Y259427D01*
X374752Y259474D01*
X374792Y259547D01*
X374811Y259574D01*
X374817Y259592D01*
X374832Y259621D01*
X376044Y262547D01*
X378253Y264756D01*
X381138Y265951D01*
X384262Y265951D01*
X387147Y264756D01*
X389356Y262547D01*
X390551Y259662D01*
X390551Y256538D01*
X389356Y253653D01*
X387147Y251444D01*
X384221Y250232D01*
X384165Y250198D01*
X384105Y250172D01*
X384040Y250120D01*
X384012Y250103D01*
X383999Y250088D01*
X383974Y250067D01*
X348626Y214719D01*
X346668Y212761D01*
X344249Y211759D01*
X133002Y211759D01*
X132906Y211744D01*
X132809Y211734D01*
X132785Y211724D01*
X132760Y211720D01*
X132674Y211674D01*
X132585Y211634D01*
X132565Y211617D01*
X132542Y211604D01*
X132475Y211534D01*
X132404Y211468D01*
X132391Y211445D01*
X132373Y211426D01*
X132332Y211338D01*
X132285Y211252D01*
X132280Y211227D01*
X132269Y211203D01*
X132259Y211106D01*
X132241Y211010D01*
X132245Y210984D01*
X132242Y210959D01*
X132263Y210864D01*
X132277Y210767D01*
X132289Y210744D01*
X132294Y210718D01*
X132344Y210635D01*
X132389Y210548D01*
X132407Y210529D01*
X132421Y210507D01*
X132495Y210444D01*
X132564Y210376D01*
X132593Y210360D01*
X132608Y210347D01*
X132638Y210335D01*
X132711Y210295D01*
X133568Y209940D01*
X135340Y208168D01*
X136299Y205853D01*
X136299Y203347D01*
X135340Y201032D01*
X133568Y199260D01*
X131253Y198301D01*
X128747Y198301D01*
G37*
%LPD*%
%LPC*%
G36*
X209686Y13259D02*
X209686Y13259D01*
X206333Y14648D01*
X203768Y17213D01*
X202379Y20566D01*
X202379Y39434D01*
X203768Y42787D01*
X204696Y43715D01*
X204749Y43789D01*
X204809Y43858D01*
X204821Y43889D01*
X204840Y43915D01*
X204867Y44002D01*
X204901Y44087D01*
X204905Y44127D01*
X204912Y44150D01*
X204911Y44182D01*
X204919Y44253D01*
X204919Y57809D01*
X205921Y60228D01*
X306272Y160579D01*
X308691Y161581D01*
X411959Y161581D01*
X412049Y161595D01*
X412140Y161603D01*
X412170Y161615D01*
X412202Y161620D01*
X412282Y161663D01*
X412366Y161699D01*
X412398Y161725D01*
X412419Y161736D01*
X412438Y161756D01*
X412440Y161757D01*
X412446Y161762D01*
X412497Y161804D01*
X473196Y222503D01*
X473249Y222577D01*
X473309Y222646D01*
X473321Y222676D01*
X473340Y222703D01*
X473367Y222790D01*
X473401Y222874D01*
X473405Y222915D01*
X473412Y222938D01*
X473411Y222970D01*
X473419Y223041D01*
X473419Y311309D01*
X474421Y313728D01*
X476272Y315579D01*
X478691Y316581D01*
X481309Y316581D01*
X483728Y315579D01*
X485579Y313728D01*
X486581Y311309D01*
X486581Y218691D01*
X485579Y216272D01*
X418728Y149421D01*
X416309Y148419D01*
X313041Y148419D01*
X312951Y148405D01*
X312860Y148397D01*
X312830Y148385D01*
X312798Y148380D01*
X312718Y148337D01*
X312634Y148301D01*
X312602Y148275D01*
X312581Y148264D01*
X312559Y148241D01*
X312503Y148196D01*
X218304Y53997D01*
X218251Y53923D01*
X218191Y53854D01*
X218179Y53824D01*
X218160Y53797D01*
X218133Y53710D01*
X218099Y53626D01*
X218095Y53585D01*
X218088Y53562D01*
X218089Y53530D01*
X218081Y53459D01*
X218081Y44253D01*
X218095Y44163D01*
X218103Y44072D01*
X218115Y44042D01*
X218120Y44011D01*
X218163Y43930D01*
X218199Y43846D01*
X218225Y43814D01*
X218236Y43793D01*
X218259Y43771D01*
X218304Y43715D01*
X219232Y42787D01*
X220621Y39434D01*
X220621Y20566D01*
X219232Y17213D01*
X216667Y14648D01*
X213314Y13259D01*
X209686Y13259D01*
G37*
%LPD*%
%LPC*%
G36*
X266538Y174049D02*
X266538Y174049D01*
X263653Y175244D01*
X261444Y177453D01*
X260249Y180338D01*
X260249Y183462D01*
X261444Y186347D01*
X263653Y188556D01*
X266579Y189768D01*
X266635Y189802D01*
X266695Y189828D01*
X266760Y189880D01*
X266788Y189897D01*
X266801Y189912D01*
X266826Y189933D01*
X280514Y203621D01*
X282472Y205579D01*
X284891Y206581D01*
X391309Y206581D01*
X393728Y205579D01*
X395686Y203621D01*
X400220Y199087D01*
X400278Y199045D01*
X400330Y198996D01*
X400377Y198974D01*
X400419Y198943D01*
X400488Y198922D01*
X400553Y198892D01*
X400605Y198886D01*
X400655Y198871D01*
X400726Y198873D01*
X400797Y198865D01*
X400848Y198876D01*
X400900Y198877D01*
X400968Y198902D01*
X401038Y198917D01*
X401083Y198944D01*
X401131Y198962D01*
X401187Y199007D01*
X401249Y199043D01*
X401283Y199083D01*
X401323Y199115D01*
X401362Y199176D01*
X401409Y199230D01*
X401428Y199279D01*
X401456Y199322D01*
X401474Y199392D01*
X401501Y199458D01*
X401509Y199530D01*
X401517Y199561D01*
X401515Y199584D01*
X401519Y199625D01*
X401519Y241123D01*
X402521Y243542D01*
X414226Y255247D01*
X414279Y255321D01*
X414339Y255390D01*
X414351Y255421D01*
X414370Y255447D01*
X414397Y255534D01*
X414431Y255619D01*
X414435Y255660D01*
X414442Y255682D01*
X414441Y255714D01*
X414449Y255785D01*
X414449Y261882D01*
X414439Y261947D01*
X414438Y262012D01*
X414415Y262092D01*
X414410Y262125D01*
X414400Y262142D01*
X414391Y262174D01*
X414369Y262227D01*
X414369Y333536D01*
X414355Y333627D01*
X414347Y333717D01*
X414335Y333747D01*
X414330Y333779D01*
X414287Y333860D01*
X414251Y333944D01*
X414225Y333976D01*
X414214Y333997D01*
X414191Y334019D01*
X414146Y334075D01*
X411949Y336272D01*
X411949Y343728D01*
X417222Y349001D01*
X424678Y349001D01*
X429951Y343728D01*
X429951Y336272D01*
X427754Y334075D01*
X427701Y334001D01*
X427641Y333931D01*
X427629Y333901D01*
X427610Y333875D01*
X427583Y333788D01*
X427549Y333703D01*
X427545Y333662D01*
X427538Y333640D01*
X427539Y333608D01*
X427531Y333536D01*
X427531Y265109D01*
X427532Y265099D01*
X427532Y265093D01*
X427539Y265060D01*
X427541Y265045D01*
X427542Y264979D01*
X427565Y264899D01*
X427570Y264867D01*
X427580Y264849D01*
X427589Y264818D01*
X427611Y264765D01*
X427611Y251435D01*
X426609Y249016D01*
X414904Y237311D01*
X414851Y237237D01*
X414791Y237168D01*
X414779Y237138D01*
X414760Y237112D01*
X414733Y237025D01*
X414699Y236940D01*
X414695Y236899D01*
X414688Y236876D01*
X414689Y236844D01*
X414681Y236773D01*
X414681Y186679D01*
X414691Y186614D01*
X414692Y186549D01*
X414715Y186469D01*
X414720Y186436D01*
X414730Y186419D01*
X414739Y186388D01*
X415951Y183462D01*
X415951Y180338D01*
X414756Y177453D01*
X412547Y175244D01*
X409662Y174049D01*
X406538Y174049D01*
X403653Y175244D01*
X401444Y177453D01*
X400232Y180379D01*
X400198Y180435D01*
X400172Y180495D01*
X400120Y180560D01*
X400103Y180588D01*
X400088Y180601D01*
X400067Y180626D01*
X387497Y193196D01*
X387423Y193249D01*
X387354Y193309D01*
X387324Y193321D01*
X387297Y193340D01*
X387210Y193367D01*
X387126Y193401D01*
X387085Y193405D01*
X387062Y193412D01*
X387030Y193411D01*
X386959Y193419D01*
X289241Y193419D01*
X289151Y193405D01*
X289060Y193397D01*
X289030Y193385D01*
X288998Y193380D01*
X288918Y193337D01*
X288834Y193301D01*
X288802Y193275D01*
X288781Y193264D01*
X288759Y193241D01*
X288703Y193196D01*
X276133Y180626D01*
X276094Y180573D01*
X276048Y180526D01*
X276008Y180453D01*
X275989Y180426D01*
X275983Y180408D01*
X275968Y180379D01*
X274756Y177453D01*
X272547Y175244D01*
X269662Y174049D01*
X266538Y174049D01*
G37*
%LPD*%
%LPC*%
G36*
X311286Y13259D02*
X311286Y13259D01*
X307933Y14648D01*
X305368Y17213D01*
X303979Y20566D01*
X303979Y39434D01*
X305368Y42787D01*
X306296Y43715D01*
X306349Y43789D01*
X306409Y43858D01*
X306421Y43889D01*
X306440Y43915D01*
X306467Y44002D01*
X306501Y44087D01*
X306505Y44127D01*
X306512Y44150D01*
X306511Y44182D01*
X306519Y44253D01*
X306519Y99409D01*
X307521Y101828D01*
X326272Y120579D01*
X328691Y121581D01*
X471959Y121581D01*
X472049Y121595D01*
X472140Y121603D01*
X472170Y121615D01*
X472202Y121620D01*
X472282Y121663D01*
X472366Y121699D01*
X472398Y121725D01*
X472419Y121736D01*
X472441Y121759D01*
X472497Y121804D01*
X501272Y150579D01*
X503691Y151581D01*
X506309Y151581D01*
X508728Y150579D01*
X510579Y148728D01*
X511581Y146309D01*
X511581Y143691D01*
X510579Y141272D01*
X478728Y109421D01*
X476309Y108419D01*
X333041Y108419D01*
X332951Y108405D01*
X332860Y108397D01*
X332830Y108385D01*
X332798Y108380D01*
X332718Y108337D01*
X332634Y108301D01*
X332602Y108275D01*
X332581Y108264D01*
X332559Y108241D01*
X332503Y108196D01*
X319904Y95597D01*
X319851Y95523D01*
X319791Y95454D01*
X319779Y95424D01*
X319760Y95397D01*
X319733Y95310D01*
X319699Y95226D01*
X319695Y95185D01*
X319688Y95162D01*
X319689Y95130D01*
X319681Y95059D01*
X319681Y44253D01*
X319695Y44163D01*
X319703Y44072D01*
X319715Y44042D01*
X319720Y44011D01*
X319763Y43930D01*
X319799Y43846D01*
X319825Y43814D01*
X319836Y43793D01*
X319859Y43771D01*
X319904Y43715D01*
X320832Y42787D01*
X322221Y39434D01*
X322221Y20566D01*
X320832Y17213D01*
X318267Y14648D01*
X314914Y13259D01*
X311286Y13259D01*
G37*
%LPD*%
%LPC*%
G36*
X260486Y13259D02*
X260486Y13259D01*
X257133Y14648D01*
X254568Y17213D01*
X253179Y20566D01*
X253179Y39434D01*
X254568Y42787D01*
X255496Y43715D01*
X255549Y43789D01*
X255609Y43858D01*
X255621Y43889D01*
X255640Y43915D01*
X255667Y44002D01*
X255701Y44087D01*
X255705Y44127D01*
X255712Y44150D01*
X255711Y44182D01*
X255719Y44253D01*
X255719Y78609D01*
X256721Y81028D01*
X316272Y140579D01*
X318691Y141581D01*
X421309Y141581D01*
X423728Y140579D01*
X425579Y138728D01*
X426581Y136309D01*
X426581Y133691D01*
X425579Y131272D01*
X423728Y129421D01*
X421309Y128419D01*
X323041Y128419D01*
X322951Y128405D01*
X322860Y128397D01*
X322830Y128385D01*
X322798Y128380D01*
X322718Y128337D01*
X322634Y128301D01*
X322602Y128275D01*
X322581Y128264D01*
X322559Y128241D01*
X322503Y128196D01*
X269104Y74797D01*
X269051Y74723D01*
X268991Y74654D01*
X268979Y74624D01*
X268960Y74597D01*
X268933Y74510D01*
X268899Y74426D01*
X268895Y74385D01*
X268888Y74362D01*
X268889Y74330D01*
X268881Y74259D01*
X268881Y44253D01*
X268895Y44163D01*
X268903Y44072D01*
X268915Y44042D01*
X268920Y44011D01*
X268963Y43930D01*
X268999Y43846D01*
X269025Y43814D01*
X269036Y43793D01*
X269059Y43771D01*
X269104Y43715D01*
X270032Y42787D01*
X271421Y39434D01*
X271421Y20566D01*
X270032Y17213D01*
X267467Y14648D01*
X264114Y13259D01*
X260486Y13259D01*
G37*
%LPD*%
%LPC*%
G36*
X387486Y13259D02*
X387486Y13259D01*
X384133Y14648D01*
X381568Y17213D01*
X380179Y20566D01*
X380179Y39434D01*
X381568Y42787D01*
X382496Y43715D01*
X382549Y43789D01*
X382609Y43858D01*
X382621Y43889D01*
X382640Y43915D01*
X382667Y44002D01*
X382701Y44087D01*
X382705Y44127D01*
X382712Y44150D01*
X382711Y44182D01*
X382719Y44253D01*
X382719Y60609D01*
X383721Y63028D01*
X396272Y75579D01*
X398691Y76581D01*
X451959Y76581D01*
X452049Y76595D01*
X452140Y76603D01*
X452170Y76615D01*
X452202Y76620D01*
X452282Y76663D01*
X452366Y76699D01*
X452398Y76725D01*
X452419Y76736D01*
X452441Y76759D01*
X452497Y76804D01*
X481272Y105579D01*
X483691Y106581D01*
X486309Y106581D01*
X488728Y105579D01*
X490579Y103728D01*
X491581Y101309D01*
X491581Y98691D01*
X490579Y96272D01*
X460686Y66379D01*
X458728Y64421D01*
X456309Y63419D01*
X403041Y63419D01*
X402951Y63405D01*
X402860Y63397D01*
X402830Y63385D01*
X402798Y63380D01*
X402718Y63337D01*
X402634Y63301D01*
X402602Y63275D01*
X402581Y63264D01*
X402564Y63247D01*
X402563Y63246D01*
X402555Y63238D01*
X402503Y63196D01*
X396104Y56797D01*
X396051Y56723D01*
X395991Y56654D01*
X395979Y56624D01*
X395960Y56597D01*
X395933Y56510D01*
X395899Y56426D01*
X395895Y56385D01*
X395888Y56362D01*
X395889Y56330D01*
X395881Y56259D01*
X395881Y44253D01*
X395895Y44163D01*
X395903Y44072D01*
X395915Y44042D01*
X395920Y44011D01*
X395963Y43930D01*
X395999Y43846D01*
X396025Y43814D01*
X396036Y43793D01*
X396059Y43771D01*
X396104Y43715D01*
X397032Y42787D01*
X398421Y39434D01*
X398421Y20566D01*
X397032Y17213D01*
X394467Y14648D01*
X391114Y13259D01*
X387486Y13259D01*
G37*
%LPD*%
%LPC*%
G36*
X353034Y319317D02*
X353034Y319317D01*
X349402Y320822D01*
X347827Y322396D01*
X347753Y322449D01*
X347684Y322509D01*
X347654Y322521D01*
X347628Y322540D01*
X347541Y322567D01*
X347456Y322601D01*
X347415Y322605D01*
X347393Y322612D01*
X347360Y322611D01*
X347289Y322619D01*
X309491Y322619D01*
X307072Y323621D01*
X294421Y336272D01*
X293419Y338691D01*
X293419Y390355D01*
X293405Y390445D01*
X293397Y390536D01*
X293385Y390565D01*
X293380Y390597D01*
X293337Y390678D01*
X293301Y390762D01*
X293275Y390794D01*
X293264Y390815D01*
X293241Y390837D01*
X293196Y390893D01*
X290462Y393627D01*
X288749Y397762D01*
X288749Y402238D01*
X290462Y406373D01*
X293627Y409538D01*
X297762Y411251D01*
X302238Y411251D01*
X306373Y409538D01*
X309538Y406373D01*
X311251Y402238D01*
X311251Y397762D01*
X309538Y393627D01*
X306804Y390893D01*
X306751Y390819D01*
X306691Y390749D01*
X306679Y390719D01*
X306660Y390693D01*
X306633Y390606D01*
X306599Y390521D01*
X306595Y390480D01*
X306588Y390458D01*
X306589Y390426D01*
X306581Y390355D01*
X306581Y343041D01*
X306595Y342951D01*
X306603Y342860D01*
X306615Y342830D01*
X306620Y342798D01*
X306663Y342718D01*
X306699Y342634D01*
X306725Y342602D01*
X306736Y342581D01*
X306759Y342559D01*
X306804Y342503D01*
X313303Y336004D01*
X313377Y335951D01*
X313446Y335891D01*
X313476Y335879D01*
X313503Y335860D01*
X313590Y335833D01*
X313674Y335799D01*
X313715Y335795D01*
X313738Y335788D01*
X313770Y335789D01*
X313841Y335781D01*
X347289Y335781D01*
X347379Y335795D01*
X347470Y335803D01*
X347500Y335815D01*
X347532Y335820D01*
X347613Y335863D01*
X347696Y335899D01*
X347729Y335925D01*
X347749Y335936D01*
X347771Y335959D01*
X347827Y336004D01*
X349402Y337578D01*
X353034Y339083D01*
X356966Y339083D01*
X360598Y337578D01*
X363378Y334798D01*
X364883Y331166D01*
X364883Y327234D01*
X363378Y323602D01*
X360598Y320822D01*
X356966Y319317D01*
X353034Y319317D01*
G37*
%LPD*%
%LPC*%
G36*
X515912Y399449D02*
X515912Y399449D01*
X508359Y402578D01*
X502578Y408359D01*
X499449Y415912D01*
X499449Y424088D01*
X502578Y431641D01*
X508359Y437422D01*
X515912Y440551D01*
X524088Y440551D01*
X531641Y437422D01*
X537422Y431641D01*
X540551Y424088D01*
X540551Y415912D01*
X537422Y408359D01*
X531641Y402578D01*
X524088Y399449D01*
X515912Y399449D01*
G37*
%LPD*%
%LPC*%
G36*
X25912Y399449D02*
X25912Y399449D01*
X18359Y402578D01*
X12578Y408359D01*
X9449Y415912D01*
X9449Y424088D01*
X12578Y431641D01*
X18359Y437422D01*
X25912Y440551D01*
X34088Y440551D01*
X41641Y437422D01*
X47422Y431641D01*
X50551Y424088D01*
X50551Y415912D01*
X47422Y408359D01*
X41641Y402578D01*
X34088Y399449D01*
X25912Y399449D01*
G37*
%LPD*%
%LPC*%
G36*
X515912Y9449D02*
X515912Y9449D01*
X508359Y12578D01*
X502578Y18359D01*
X499449Y25912D01*
X499449Y34088D01*
X502578Y41641D01*
X508359Y47422D01*
X515912Y50551D01*
X524088Y50551D01*
X531641Y47422D01*
X537422Y41641D01*
X540551Y34088D01*
X540551Y25912D01*
X537422Y18359D01*
X531641Y12578D01*
X524088Y9449D01*
X515912Y9449D01*
G37*
%LPD*%
%LPC*%
G36*
X25912Y9449D02*
X25912Y9449D01*
X18359Y12578D01*
X12578Y18359D01*
X9449Y25912D01*
X9449Y34088D01*
X12578Y41641D01*
X18359Y47422D01*
X25912Y50551D01*
X34088Y50551D01*
X41641Y47422D01*
X47422Y41641D01*
X50551Y34088D01*
X50551Y25912D01*
X47422Y18359D01*
X41641Y12578D01*
X34088Y9449D01*
X25912Y9449D01*
G37*
%LPD*%
%LPC*%
G36*
X412886Y13259D02*
X412886Y13259D01*
X409533Y14648D01*
X406968Y17213D01*
X405579Y20566D01*
X405579Y39434D01*
X406968Y42787D01*
X409533Y45352D01*
X412886Y46741D01*
X416514Y46741D01*
X419867Y45352D01*
X422432Y42787D01*
X423821Y39434D01*
X423821Y20566D01*
X422432Y17213D01*
X419867Y14648D01*
X416514Y13259D01*
X412886Y13259D01*
G37*
%LPD*%
%LPC*%
G36*
X336686Y13259D02*
X336686Y13259D01*
X333333Y14648D01*
X330768Y17213D01*
X329379Y20566D01*
X329379Y39434D01*
X330768Y42787D01*
X333333Y45352D01*
X336686Y46741D01*
X340314Y46741D01*
X343667Y45352D01*
X346232Y42787D01*
X347621Y39434D01*
X347621Y20566D01*
X346232Y17213D01*
X343667Y14648D01*
X340314Y13259D01*
X336686Y13259D01*
G37*
%LPD*%
%LPC*%
G36*
X158886Y13259D02*
X158886Y13259D01*
X155533Y14648D01*
X152968Y17213D01*
X151579Y20566D01*
X151579Y39434D01*
X152968Y42787D01*
X155533Y45352D01*
X158886Y46741D01*
X162514Y46741D01*
X165867Y45352D01*
X168432Y42787D01*
X169821Y39434D01*
X169821Y20566D01*
X168432Y17213D01*
X165867Y14648D01*
X162514Y13259D01*
X158886Y13259D01*
G37*
%LPD*%
%LPC*%
G36*
X108086Y13259D02*
X108086Y13259D01*
X104733Y14648D01*
X102168Y17213D01*
X100779Y20566D01*
X100779Y39434D01*
X102168Y42787D01*
X104733Y45352D01*
X108086Y46741D01*
X111714Y46741D01*
X115067Y45352D01*
X117632Y42787D01*
X119021Y39434D01*
X119021Y20566D01*
X117632Y17213D01*
X115067Y14648D01*
X111714Y13259D01*
X108086Y13259D01*
G37*
%LPD*%
%LPC*%
G36*
X20566Y163979D02*
X20566Y163979D01*
X17213Y165368D01*
X14648Y167933D01*
X13259Y171286D01*
X13259Y174914D01*
X14648Y178267D01*
X17213Y180832D01*
X20566Y182221D01*
X39434Y182221D01*
X42787Y180832D01*
X45352Y178267D01*
X46741Y174914D01*
X46741Y171286D01*
X45352Y167933D01*
X42787Y165368D01*
X39434Y163979D01*
X20566Y163979D01*
G37*
%LPD*%
%LPC*%
G36*
X20566Y113179D02*
X20566Y113179D01*
X17213Y114568D01*
X14648Y117133D01*
X13259Y120486D01*
X13259Y124114D01*
X14648Y127467D01*
X17213Y130032D01*
X20566Y131421D01*
X39434Y131421D01*
X42787Y130032D01*
X45352Y127467D01*
X46741Y124114D01*
X46741Y120486D01*
X45352Y117133D01*
X42787Y114568D01*
X39434Y113179D01*
X20566Y113179D01*
G37*
%LPD*%
%LPC*%
G36*
X239628Y388749D02*
X239628Y388749D01*
X238749Y389628D01*
X238749Y410372D01*
X239628Y411251D01*
X260372Y411251D01*
X261251Y410372D01*
X261251Y389628D01*
X260372Y388749D01*
X239628Y388749D01*
G37*
%LPD*%
%LPC*%
G36*
X353034Y420917D02*
X353034Y420917D01*
X349402Y422422D01*
X346622Y425202D01*
X345117Y428834D01*
X345117Y432766D01*
X346622Y436398D01*
X349402Y439178D01*
X353034Y440683D01*
X356966Y440683D01*
X360598Y439178D01*
X363378Y436398D01*
X364883Y432766D01*
X364883Y428834D01*
X363378Y425202D01*
X360598Y422422D01*
X356966Y420917D01*
X353034Y420917D01*
G37*
%LPD*%
%LPC*%
G36*
X355738Y250249D02*
X355738Y250249D01*
X352853Y251444D01*
X350644Y253653D01*
X349449Y256538D01*
X349449Y259662D01*
X350644Y262547D01*
X352853Y264756D01*
X355738Y265951D01*
X358862Y265951D01*
X361747Y264756D01*
X363956Y262547D01*
X365151Y259662D01*
X365151Y256538D01*
X363956Y253653D01*
X361747Y251444D01*
X358862Y250249D01*
X355738Y250249D01*
G37*
%LPD*%
%LPC*%
G36*
X355738Y174049D02*
X355738Y174049D01*
X352853Y175244D01*
X350644Y177453D01*
X349449Y180338D01*
X349449Y183462D01*
X350644Y186347D01*
X352853Y188556D01*
X355738Y189751D01*
X358862Y189751D01*
X361747Y188556D01*
X363956Y186347D01*
X365151Y183462D01*
X365151Y180338D01*
X363956Y177453D01*
X361747Y175244D01*
X358862Y174049D01*
X355738Y174049D01*
G37*
%LPD*%
%LPC*%
G36*
X330338Y174049D02*
X330338Y174049D01*
X327453Y175244D01*
X325244Y177453D01*
X324049Y180338D01*
X324049Y183462D01*
X325244Y186347D01*
X327453Y188556D01*
X330338Y189751D01*
X333462Y189751D01*
X336347Y188556D01*
X338556Y186347D01*
X339751Y183462D01*
X339751Y180338D01*
X338556Y177453D01*
X336347Y175244D01*
X333462Y174049D01*
X330338Y174049D01*
G37*
%LPD*%
%LPC*%
G36*
X241138Y174049D02*
X241138Y174049D01*
X238253Y175244D01*
X236044Y177453D01*
X234849Y180338D01*
X234849Y183462D01*
X236044Y186347D01*
X238253Y188556D01*
X241138Y189751D01*
X244262Y189751D01*
X247147Y188556D01*
X249356Y186347D01*
X250551Y183462D01*
X250551Y180338D01*
X249356Y177453D01*
X247147Y175244D01*
X244262Y174049D01*
X241138Y174049D01*
G37*
%LPD*%
%LPC*%
G36*
X215738Y174049D02*
X215738Y174049D01*
X212853Y175244D01*
X210644Y177453D01*
X209449Y180338D01*
X209449Y183462D01*
X210644Y186347D01*
X212853Y188556D01*
X215738Y189751D01*
X218862Y189751D01*
X221747Y188556D01*
X223956Y186347D01*
X225151Y183462D01*
X225151Y180338D01*
X223956Y177453D01*
X221747Y175244D01*
X218862Y174049D01*
X215738Y174049D01*
G37*
%LPD*%
%LPC*%
G36*
X190338Y174049D02*
X190338Y174049D01*
X187453Y175244D01*
X185244Y177453D01*
X184049Y180338D01*
X184049Y183462D01*
X185244Y186347D01*
X187453Y188556D01*
X190338Y189751D01*
X193462Y189751D01*
X196347Y188556D01*
X198556Y186347D01*
X199751Y183462D01*
X199751Y180338D01*
X198556Y177453D01*
X196347Y175244D01*
X193462Y174049D01*
X190338Y174049D01*
G37*
%LPD*%
%LPC*%
G36*
X128747Y249101D02*
X128747Y249101D01*
X126432Y250060D01*
X124660Y251832D01*
X123701Y254147D01*
X123701Y256653D01*
X124660Y258968D01*
X126432Y260740D01*
X128747Y261699D01*
X131253Y261699D01*
X133568Y260740D01*
X135340Y258968D01*
X136299Y256653D01*
X136299Y254147D01*
X135340Y251832D01*
X133568Y250060D01*
X131253Y249101D01*
X128747Y249101D01*
G37*
%LPD*%
D10*
X355000Y329200D03*
X355000Y430800D03*
D11*
X446350Y327300D03*
X420950Y340000D03*
X446350Y352700D03*
D12*
X250000Y400000D03*
D13*
X300000Y400000D03*
D14*
X130000Y255400D03*
X130000Y230000D03*
X130000Y204600D03*
D15*
X30000Y420000D03*
X520000Y420000D03*
X30000Y30000D03*
X520000Y30000D03*
D16*
X37620Y173100D02*
X22380Y173100D01*
X22380Y147700D02*
X37620Y147700D01*
X37620Y122300D02*
X22380Y122300D01*
X22380Y96900D02*
X37620Y96900D01*
D17*
X191900Y181900D03*
X217300Y181900D03*
X217300Y258100D03*
X191900Y258100D03*
X242700Y181900D03*
X268100Y181900D03*
X242700Y258100D03*
X268100Y258100D03*
X331900Y181900D03*
X357300Y181900D03*
X357300Y258100D03*
X331900Y258100D03*
X382700Y181900D03*
X408100Y181900D03*
X382700Y258100D03*
X408100Y258100D03*
D16*
X109900Y37620D02*
X109900Y22380D01*
X135300Y22380D02*
X135300Y37620D01*
X160700Y37620D02*
X160700Y22380D01*
X186100Y22380D02*
X186100Y37620D01*
X211500Y37620D02*
X211500Y22380D01*
X236900Y22380D02*
X236900Y37620D01*
X262300Y37620D02*
X262300Y22380D01*
X287700Y22380D02*
X287700Y37620D01*
X313100Y37620D02*
X313100Y22380D01*
X338500Y22380D02*
X338500Y37620D01*
X363900Y37620D02*
X363900Y22380D01*
X389300Y22380D02*
X389300Y37620D01*
X414700Y37620D02*
X414700Y22380D01*
X440100Y22380D02*
X440100Y37620D01*
D18*
X380000Y340000D02*
X400000Y360000D01*
X439050Y360000D02*
X446350Y352700D01*
X439050Y360000D02*
X400000Y360000D01*
X191900Y261900D02*
X191900Y258100D01*
X201030Y271030D02*
X318970Y271030D01*
X331900Y258100D01*
X201030Y271030D02*
X191900Y261900D01*
X331900Y258100D02*
X380000Y306200D01*
X380000Y340000D01*
D19*
X20000Y310000D03*
X55000Y325000D03*
X100000Y375000D03*
X120000Y360000D03*
X65000Y360000D03*
X90000Y335000D03*
X115000Y325000D03*
X125000Y410000D03*
X65000Y410000D03*
X75000Y390000D03*
X20000Y380000D03*
X45000Y290000D03*
X15000Y275000D03*
X10000Y205000D03*
X20000Y80000D03*
X10000Y140000D03*
X60000Y15000D03*
X65000Y85000D03*
X70000Y45000D03*
X145000Y95000D03*
X135000Y75000D03*
X105000Y135000D03*
X80000Y115000D03*
X90000Y185000D03*
X45000Y215000D03*
X50000Y195000D03*
X90000Y250000D03*
X100000Y280000D03*
X105000Y290000D03*
X170000Y325000D03*
X155000Y350000D03*
X155000Y405000D03*
X120000Y390000D03*
X200000Y435000D03*
X280000Y425000D03*
X245000Y435000D03*
X235000Y375000D03*
X220000Y400000D03*
X225000Y360000D03*
X275000Y355000D03*
X280000Y380000D03*
X275000Y400000D03*
X305000Y425000D03*
X340000Y435000D03*
X325000Y405000D03*
X340000Y420000D03*
X315000Y370000D03*
X395000Y395000D03*
X370000Y415000D03*
X400000Y405000D03*
X465000Y440000D03*
X495000Y440000D03*
X470000Y410000D03*
X510000Y370000D03*
X475000Y380000D03*
X490000Y400000D03*
X525000Y345000D03*
X500000Y310000D03*
X500000Y345000D03*
X520000Y300000D03*
X530000Y380000D03*
X365000Y365000D03*
X345000Y345000D03*
X305000Y285000D03*
X240000Y290000D03*
X170000Y275000D03*
X140000Y285000D03*
X150000Y275000D03*
X165000Y205000D03*
X190000Y200000D03*
X160000Y175000D03*
X125000Y185000D03*
X110000Y160000D03*
X180000Y125000D03*
X165000Y110000D03*
X205000Y135000D03*
X275000Y145000D03*
X290000Y185000D03*
X285000Y160000D03*
X315000Y180000D03*
X300000Y245000D03*
X315000Y255000D03*
X310000Y235000D03*
X330000Y235000D03*
X385000Y215000D03*
X370000Y220000D03*
X255000Y205000D03*
X240000Y200000D03*
X460000Y95000D03*
X450000Y90000D03*
X405000Y95000D03*
X390000Y90000D03*
X375000Y75000D03*
X360000Y60000D03*
X335000Y95000D03*
X325000Y75000D03*
X295000Y85000D03*
X300000Y60000D03*
X280000Y70000D03*
X210000Y90000D03*
X225000Y95000D03*
X190000Y70000D03*
X240000Y60000D03*
X245000Y70000D03*
X250000Y50000D03*
X460000Y50000D03*
X475000Y35000D03*
X515000Y70000D03*
X530000Y115000D03*
X510000Y115000D03*
X535000Y75000D03*
X490000Y65000D03*
X485000Y15000D03*
X425000Y10000D03*
X300000Y10000D03*
X225000Y10000D03*
X145000Y10000D03*
X195000Y10000D03*
X270000Y10000D03*
X350000Y10000D03*
X400000Y10000D03*
X85000Y15000D03*
X90000Y70000D03*
X45000Y65000D03*
X10000Y55000D03*
X10000Y110000D03*
X10000Y160000D03*
X10000Y190000D03*
X10000Y240000D03*
X20000Y335000D03*
X50000Y345000D03*
X140000Y330000D03*
X175000Y395000D03*
X230000Y320000D03*
X265000Y320000D03*
X195000Y320000D03*
X90000Y205000D03*
X80000Y215000D03*
X50000Y245000D03*
X170000Y260000D03*
X270000Y285000D03*
X280000Y230000D03*
X435000Y215000D03*
X450000Y215000D03*
X435000Y250000D03*
X435000Y275000D03*
X460000Y250000D03*
X450000Y270000D03*
X450000Y290000D03*
X465000Y320000D03*
X395000Y320000D03*
X405000Y320000D03*
X380000Y390000D03*
X390000Y410000D03*
X540000Y395000D03*
X530000Y275000D03*
X505000Y285000D03*
X495000Y245000D03*
X500000Y215000D03*
X525000Y210000D03*
X535000Y250000D03*
X535000Y175000D03*
X480000Y140000D03*
X465000Y130000D03*
X535000Y145000D03*
X510000Y90000D03*
X540000Y50000D03*
X490000Y45000D03*
X380000Y95000D03*
X295000Y125000D03*
X260000Y90000D03*
X255000Y180000D03*
X180000Y175000D03*
X140000Y240000D03*
X145000Y195000D03*
X255000Y255000D03*
X160000Y375000D03*
X165000Y435000D03*
X55000Y440000D03*
X115000Y425000D03*
X115000Y440000D03*
X90000Y430000D03*
X145000Y420000D03*
X530000Y320000D03*
X365000Y320000D03*
X290000Y320000D03*
X330000Y385000D03*
X410000Y415000D03*
X455000Y430000D03*
X120000Y15000D03*
X175000Y10000D03*
X245000Y10000D03*
X325000Y10000D03*
X370000Y10000D03*
X465000Y15000D03*
X495000Y10000D03*
X45000Y10000D03*
X10000Y400000D03*
X10000Y355000D03*
D18*
X211500Y56500D02*
X211500Y30000D01*
X310000Y155000D02*
X415000Y155000D01*
X480000Y220000D01*
X480000Y310000D01*
D19*
X480000Y310000D03*
D18*
X310000Y155000D02*
X211500Y56500D01*
X310800Y329200D02*
X355000Y329200D01*
X300000Y340000D02*
X300000Y400000D01*
X300000Y340000D02*
X310800Y329200D01*
X286200Y200000D02*
X268100Y181900D01*
X390000Y200000D02*
X408100Y181900D01*
X390000Y200000D02*
X286200Y200000D01*
X421030Y252744D02*
X421030Y263456D01*
X408100Y239814D02*
X408100Y181900D01*
X408100Y239814D02*
X421030Y252744D01*
X421030Y263456D02*
X420950Y263536D01*
X420950Y340000D01*
X200000Y230000D02*
X130000Y230000D01*
X200000Y230000D02*
X217300Y247300D01*
X217300Y258100D01*
D19*
X505000Y145000D03*
D18*
X475000Y115000D01*
X313100Y98100D02*
X313100Y30000D01*
X330000Y115000D02*
X475000Y115000D01*
X330000Y115000D02*
X313100Y98100D01*
X262300Y77300D02*
X262300Y30000D01*
X262300Y77300D02*
X320000Y135000D01*
X420000Y135000D01*
D19*
X420000Y135000D03*
X485000Y100000D03*
D18*
X455000Y70000D01*
X400000Y70000D01*
X389300Y59300D01*
X389300Y30000D01*
X116660Y218340D02*
X100000Y235000D01*
D19*
X100000Y235000D03*
D18*
X342940Y218340D02*
X382700Y258100D01*
X342940Y218340D02*
X116660Y218340D01*
M02*
